%TF.GenerationSoftware,KiCad,Pcbnew,(6.0.11)*%
%TF.CreationDate,2023-08-23T01:54:35-07:00*%
%TF.ProjectId,miditwiddle,6d696469-7477-4696-9464-6c652e6b6963,rev?*%
%TF.SameCoordinates,PX9157080PY60e4b00*%
%TF.FileFunction,Soldermask,Top*%
%TF.FilePolarity,Negative*%
%FSLAX46Y46*%
G04 Gerber Fmt 4.6, Leading zero omitted, Abs format (unit mm)*
G04 Created by KiCad (PCBNEW (6.0.11)) date 2023-08-23 01:54:35*
%MOMM*%
%LPD*%
G01*
G04 APERTURE LIST*
G04 Aperture macros list*
%AMRoundRect*
0 Rectangle with rounded corners*
0 $1 Rounding radius*
0 $2 $3 $4 $5 $6 $7 $8 $9 X,Y pos of 4 corners*
0 Add a 4 corners polygon primitive as box body*
4,1,4,$2,$3,$4,$5,$6,$7,$8,$9,$2,$3,0*
0 Add four circle primitives for the rounded corners*
1,1,$1+$1,$2,$3*
1,1,$1+$1,$4,$5*
1,1,$1+$1,$6,$7*
1,1,$1+$1,$8,$9*
0 Add four rect primitives between the rounded corners*
20,1,$1+$1,$2,$3,$4,$5,0*
20,1,$1+$1,$4,$5,$6,$7,0*
20,1,$1+$1,$6,$7,$8,$9,0*
20,1,$1+$1,$8,$9,$2,$3,0*%
G04 Aperture macros list end*
%ADD10C,3.200000*%
%ADD11C,1.600000*%
%ADD12RoundRect,0.450000X0.450000X0.450000X-0.450000X0.450000X-0.450000X-0.450000X0.450000X-0.450000X0*%
%ADD13C,1.800000*%
%ADD14C,2.100000*%
%ADD15C,1.860000*%
%ADD16O,1.600000X1.600000*%
%ADD17RoundRect,0.550000X0.550000X-0.550000X0.550000X0.550000X-0.550000X0.550000X-0.550000X-0.550000X0*%
%ADD18O,2.200000X2.200000*%
%ADD19C,1.700000*%
%ADD20O,1.700000X1.700000*%
%ADD21C,1.750000*%
%ADD22RoundRect,0.250000X0.600000X0.600000X-0.600000X0.600000X-0.600000X-0.600000X0.600000X-0.600000X0*%
%ADD23C,1.500000*%
%ADD24RoundRect,0.400000X0.400000X-0.800000X0.400000X0.800000X-0.400000X0.800000X-0.400000X-0.800000X0*%
%ADD25O,1.600000X2.400000*%
%ADD26C,1.300000*%
%ADD27RoundRect,0.400000X-0.400000X-0.400000X0.400000X-0.400000X0.400000X0.400000X-0.400000X0.400000X0*%
%ADD28O,2.200000X3.500000*%
%ADD29O,1.500000X2.500000*%
%ADD30RoundRect,0.400000X0.400000X-0.400000X0.400000X0.400000X-0.400000X0.400000X-0.400000X-0.400000X0*%
%ADD31RoundRect,0.875000X0.875000X-0.875000X0.875000X0.875000X-0.875000X0.875000X-0.875000X-0.875000X0*%
%ADD32RoundRect,0.750000X1.000000X-0.750000X1.000000X0.750000X-1.000000X0.750000X-1.000000X-0.750000X0*%
%ADD33C,4.600000*%
G04 APERTURE END LIST*
D10*
%TO.C,MH1*%
X-35560000Y20320000D03*
%TD*%
%TO.C,MH2*%
X35560000Y20320000D03*
%TD*%
%TO.C,MH4*%
X35560000Y-20320000D03*
%TD*%
%TO.C,MH3*%
X-35560000Y-20320000D03*
%TD*%
D11*
%TO.C,C2*%
X19050000Y5080000D03*
X19050000Y2580000D03*
%TD*%
D12*
%TO.C,D5*%
X9525000Y20320000D03*
D13*
X6985000Y20320000D03*
%TD*%
D14*
%TO.C,J3*%
X-13455000Y-13970000D03*
X-20955000Y-13970000D03*
X-28455000Y-13970000D03*
X-15955000Y-11470000D03*
X-25955000Y-11470000D03*
D15*
X-15955000Y-23470000D03*
X-25955000Y-23470000D03*
%TD*%
D14*
%TO.C,J4*%
X9405000Y-13970000D03*
X1905000Y-13970000D03*
X-5595000Y-13970000D03*
X6905000Y-11470000D03*
X-3095000Y-11470000D03*
D15*
X6905000Y-23470000D03*
X-3095000Y-23470000D03*
%TD*%
D11*
%TO.C,R5*%
X3810000Y-8890000D03*
D16*
X3810000Y-1270000D03*
%TD*%
D17*
%TO.C,D1*%
X30480000Y-1270000D03*
D18*
X30480000Y8890000D03*
%TD*%
D19*
%TO.C,JP1*%
X31115000Y-8255000D03*
D20*
X31115000Y-5715000D03*
X33655000Y-8255000D03*
X33655000Y-5715000D03*
%TD*%
D14*
%TO.C,SW2*%
X20645000Y-17195000D03*
X13635000Y-17195000D03*
D21*
X19395000Y-19685000D03*
X14895000Y-19685000D03*
%TD*%
D11*
%TO.C,R1*%
X16510000Y-1270000D03*
D16*
X16510000Y-8890000D03*
%TD*%
D22*
%TO.C,J2*%
X-33655000Y2540000D03*
D19*
X-36195000Y2540000D03*
X-33655000Y5080000D03*
X-36195000Y5080000D03*
X-33655000Y7620000D03*
X-36195000Y7620000D03*
%TD*%
D23*
%TO.C,Y1*%
X-16410000Y-635000D03*
X-11530000Y-635000D03*
%TD*%
D24*
%TO.C,U2*%
X-22860000Y3810000D03*
D25*
X-20320000Y3810000D03*
X-17780000Y3810000D03*
X-15240000Y3810000D03*
X-12700000Y3810000D03*
X-10160000Y3810000D03*
X-7620000Y3810000D03*
X-5080000Y3810000D03*
X-2540000Y3810000D03*
X0Y3810000D03*
X0Y11430000D03*
X-2540000Y11430000D03*
X-5080000Y11430000D03*
X-7620000Y11430000D03*
X-10160000Y11430000D03*
X-12700000Y11430000D03*
X-15240000Y11430000D03*
X-17780000Y11430000D03*
X-20320000Y11430000D03*
X-22860000Y11430000D03*
%TD*%
D11*
%TO.C,C4*%
X-25400000Y11430000D03*
X-25400000Y8930000D03*
%TD*%
%TO.C,R4*%
X6985000Y-8890000D03*
D16*
X6985000Y-1270000D03*
%TD*%
D11*
%TO.C,C1*%
X26670000Y2580000D03*
X26670000Y5080000D03*
%TD*%
D26*
%TO.C,U1*%
X24130000Y4445000D03*
X22860000Y3175000D03*
X21590000Y4445000D03*
%TD*%
D11*
%TO.C,R6*%
X13335000Y3810000D03*
D16*
X13335000Y11430000D03*
%TD*%
D11*
%TO.C,R7*%
X10160000Y3810000D03*
D16*
X10160000Y11430000D03*
%TD*%
D12*
%TO.C,D3*%
X19685000Y20320000D03*
D13*
X17145000Y20320000D03*
%TD*%
D12*
%TO.C,D4*%
X14605000Y20320000D03*
D13*
X12065000Y20320000D03*
%TD*%
D27*
%TO.C,C3*%
X21850000Y-1270000D03*
D11*
X23850000Y-1270000D03*
%TD*%
D28*
%TO.C,SW1*%
X30770000Y23495000D03*
X22570000Y23495000D03*
D29*
X28670000Y23495000D03*
X26670000Y23495000D03*
X24670000Y23495000D03*
%TD*%
D28*
%TO.C,SW3*%
X-21245000Y23495000D03*
X-13045000Y23495000D03*
D29*
X-15145000Y23495000D03*
X-17145000Y23495000D03*
X-19145000Y23495000D03*
%TD*%
D11*
%TO.C,R8*%
X6985000Y3810000D03*
D16*
X6985000Y11430000D03*
%TD*%
D14*
%TO.C,SW4*%
X-23795000Y17830000D03*
X-30805000Y17830000D03*
D21*
X-29555000Y20320000D03*
X-25055000Y20320000D03*
%TD*%
D11*
%TO.C,C8*%
X-4445000Y635000D03*
X-4445000Y-1865000D03*
%TD*%
%TO.C,R2*%
X-44450000Y-20320000D03*
D16*
X-44450000Y-12700000D03*
%TD*%
D30*
%TO.C,D2*%
X-46990000Y-20320000D03*
D16*
X-46990000Y-12700000D03*
%TD*%
D11*
%TO.C,R3*%
X-26670000Y-317500D03*
D16*
X-26670000Y-7937500D03*
%TD*%
D11*
%TO.C,C5*%
X-6985000Y-1865000D03*
X-6985000Y635000D03*
%TD*%
%TO.C,C6*%
X-20955000Y-1865000D03*
X-20955000Y635000D03*
%TD*%
%TO.C,C7*%
X-1905000Y635000D03*
X-1905000Y-1865000D03*
%TD*%
D24*
%TO.C,U3*%
X-41275000Y-14605000D03*
D25*
X-38735000Y-14605000D03*
X-36195000Y-14605000D03*
X-33655000Y-14605000D03*
X-33655000Y-6985000D03*
X-36195000Y-6985000D03*
X-38735000Y-6985000D03*
X-41275000Y-6985000D03*
%TD*%
D31*
%TO.C,J1*%
X26670000Y-14320000D03*
D32*
X26670000Y-20320000D03*
D31*
X31370000Y-17320000D03*
%TD*%
D33*
%TO.C,SW5*%
X-10110000Y17137500D03*
X2490000Y17137500D03*
D13*
X-1310000Y20637500D03*
X-6310000Y20637500D03*
X-3810000Y20637500D03*
X-1310000Y18137500D03*
X-6310000Y18137500D03*
%TD*%
M02*
