%TF.GenerationSoftware,KiCad,Pcbnew,(6.0.11)*%
%TF.CreationDate,2023-08-23T01:54:35-07:00*%
%TF.ProjectId,miditwiddle,6d696469-7477-4696-9464-6c652e6b6963,rev?*%
%TF.SameCoordinates,PX9157080PY60e4b00*%
%TF.FileFunction,Legend,Bot*%
%TF.FilePolarity,Positive*%
%FSLAX46Y46*%
G04 Gerber Fmt 4.6, Leading zero omitted, Abs format (unit mm)*
G04 Created by KiCad (PCBNEW (6.0.11)) date 2023-08-23 01:54:35*
%MOMM*%
%LPD*%
G01*
G04 APERTURE LIST*
%ADD10C,0.150000*%
%ADD11C,0.300000*%
%ADD12C,0.254000*%
G04 APERTURE END LIST*
D10*
X-29001786Y7167620D02*
X-28668453Y7643810D01*
X-28430358Y7167620D02*
X-28430358Y8167620D01*
X-28811310Y8167620D01*
X-28906548Y8120000D01*
X-28954167Y8072381D01*
X-29001786Y7977143D01*
X-29001786Y7834286D01*
X-28954167Y7739048D01*
X-28906548Y7691429D01*
X-28811310Y7643810D01*
X-28430358Y7643810D01*
X-29811310Y7215239D02*
X-29716072Y7167620D01*
X-29525596Y7167620D01*
X-29430358Y7215239D01*
X-29382739Y7310477D01*
X-29382739Y7691429D01*
X-29430358Y7786667D01*
X-29525596Y7834286D01*
X-29716072Y7834286D01*
X-29811310Y7786667D01*
X-29858929Y7691429D01*
X-29858929Y7596191D01*
X-29382739Y7500953D01*
X-30239881Y7215239D02*
X-30335120Y7167620D01*
X-30525596Y7167620D01*
X-30620834Y7215239D01*
X-30668453Y7310477D01*
X-30668453Y7358096D01*
X-30620834Y7453334D01*
X-30525596Y7500953D01*
X-30382739Y7500953D01*
X-30287500Y7548572D01*
X-30239881Y7643810D01*
X-30239881Y7691429D01*
X-30287500Y7786667D01*
X-30382739Y7834286D01*
X-30525596Y7834286D01*
X-30620834Y7786667D01*
X-31477977Y7215239D02*
X-31382739Y7167620D01*
X-31192262Y7167620D01*
X-31097024Y7215239D01*
X-31049405Y7310477D01*
X-31049405Y7691429D01*
X-31097024Y7786667D01*
X-31192262Y7834286D01*
X-31382739Y7834286D01*
X-31477977Y7786667D01*
X-31525596Y7691429D01*
X-31525596Y7596191D01*
X-31049405Y7500953D01*
X-31811310Y7834286D02*
X-32192262Y7834286D01*
X-31954167Y8167620D02*
X-31954167Y7310477D01*
X-32001786Y7215239D01*
X-32097024Y7167620D01*
X-32192262Y7167620D01*
X-29525596Y4675239D02*
X-29668453Y4627620D01*
X-29906548Y4627620D01*
X-30001786Y4675239D01*
X-30049405Y4722858D01*
X-30097024Y4818096D01*
X-30097024Y4913334D01*
X-30049405Y5008572D01*
X-30001786Y5056191D01*
X-29906548Y5103810D01*
X-29716072Y5151429D01*
X-29620834Y5199048D01*
X-29573215Y5246667D01*
X-29525596Y5341905D01*
X-29525596Y5437143D01*
X-29573215Y5532381D01*
X-29620834Y5580000D01*
X-29716072Y5627620D01*
X-29954167Y5627620D01*
X-30097024Y5580000D01*
X-31097024Y4722858D02*
X-31049405Y4675239D01*
X-30906548Y4627620D01*
X-30811310Y4627620D01*
X-30668453Y4675239D01*
X-30573215Y4770477D01*
X-30525596Y4865715D01*
X-30477977Y5056191D01*
X-30477977Y5199048D01*
X-30525596Y5389524D01*
X-30573215Y5484762D01*
X-30668453Y5580000D01*
X-30811310Y5627620D01*
X-30906548Y5627620D01*
X-31049405Y5580000D01*
X-31097024Y5532381D01*
X-31525596Y4627620D02*
X-31525596Y5627620D01*
X-32097024Y4627620D02*
X-31668453Y5199048D01*
X-32097024Y5627620D02*
X-31525596Y5056191D01*
X-37800596Y4627620D02*
X-37800596Y5627620D01*
X-38133929Y4913334D01*
X-38467262Y5627620D01*
X-38467262Y4627620D01*
X-39133929Y5627620D02*
X-39324405Y5627620D01*
X-39419643Y5580000D01*
X-39514881Y5484762D01*
X-39562500Y5294286D01*
X-39562500Y4960953D01*
X-39514881Y4770477D01*
X-39419643Y4675239D01*
X-39324405Y4627620D01*
X-39133929Y4627620D01*
X-39038691Y4675239D01*
X-38943453Y4770477D01*
X-38895834Y4960953D01*
X-38895834Y5294286D01*
X-38943453Y5484762D01*
X-39038691Y5580000D01*
X-39133929Y5627620D01*
X-39943453Y4675239D02*
X-40086310Y4627620D01*
X-40324405Y4627620D01*
X-40419643Y4675239D01*
X-40467262Y4722858D01*
X-40514881Y4818096D01*
X-40514881Y4913334D01*
X-40467262Y5008572D01*
X-40419643Y5056191D01*
X-40324405Y5103810D01*
X-40133929Y5151429D01*
X-40038691Y5199048D01*
X-39991072Y5246667D01*
X-39943453Y5341905D01*
X-39943453Y5437143D01*
X-39991072Y5532381D01*
X-40038691Y5580000D01*
X-40133929Y5627620D01*
X-40372024Y5627620D01*
X-40514881Y5580000D01*
X-40943453Y4627620D02*
X-40943453Y5627620D01*
X-38276786Y3087620D02*
X-37800596Y3087620D01*
X-37752977Y2611429D01*
X-37800596Y2659048D01*
X-37895834Y2706667D01*
X-38133929Y2706667D01*
X-38229167Y2659048D01*
X-38276786Y2611429D01*
X-38324405Y2516191D01*
X-38324405Y2278096D01*
X-38276786Y2182858D01*
X-38229167Y2135239D01*
X-38133929Y2087620D01*
X-37895834Y2087620D01*
X-37800596Y2135239D01*
X-37752977Y2182858D01*
X-38610120Y3087620D02*
X-38943453Y2087620D01*
X-39276786Y3087620D01*
X-28906548Y2087620D02*
X-28906548Y3087620D01*
X-29239881Y2373334D01*
X-29573215Y3087620D01*
X-29573215Y2087620D01*
X-30049405Y2087620D02*
X-30049405Y3087620D01*
X-30477977Y2135239D02*
X-30620834Y2087620D01*
X-30858929Y2087620D01*
X-30954167Y2135239D01*
X-31001786Y2182858D01*
X-31049405Y2278096D01*
X-31049405Y2373334D01*
X-31001786Y2468572D01*
X-30954167Y2516191D01*
X-30858929Y2563810D01*
X-30668453Y2611429D01*
X-30573215Y2659048D01*
X-30525596Y2706667D01*
X-30477977Y2801905D01*
X-30477977Y2897143D01*
X-30525596Y2992381D01*
X-30573215Y3040000D01*
X-30668453Y3087620D01*
X-30906548Y3087620D01*
X-31049405Y3040000D01*
X-31668453Y3087620D02*
X-31858929Y3087620D01*
X-31954167Y3040000D01*
X-32049405Y2944762D01*
X-32097024Y2754286D01*
X-32097024Y2420953D01*
X-32049405Y2230477D01*
X-31954167Y2135239D01*
X-31858929Y2087620D01*
X-31668453Y2087620D01*
X-31573215Y2135239D01*
X-31477977Y2230477D01*
X-31430358Y2420953D01*
X-31430358Y2754286D01*
X-31477977Y2944762D01*
X-31573215Y3040000D01*
X-31668453Y3087620D01*
D11*
X39174642Y14816429D02*
X39174642Y16316429D01*
X38674642Y15245000D01*
X38174642Y16316429D01*
X38174642Y14816429D01*
X37460357Y14816429D02*
X37460357Y16316429D01*
X36746071Y14816429D02*
X36746071Y16316429D01*
X36388928Y16316429D01*
X36174642Y16245000D01*
X36031785Y16102143D01*
X35960357Y15959286D01*
X35888928Y15673572D01*
X35888928Y15459286D01*
X35960357Y15173572D01*
X36031785Y15030715D01*
X36174642Y14887858D01*
X36388928Y14816429D01*
X36746071Y14816429D01*
X35246071Y14816429D02*
X35246071Y16316429D01*
X33603214Y16316429D02*
X32746071Y16316429D01*
X33174642Y14816429D02*
X33174642Y16316429D01*
X32388928Y15816429D02*
X32103214Y14816429D01*
X31817500Y15530715D01*
X31531785Y14816429D01*
X31246071Y15816429D01*
X30674642Y14816429D02*
X30674642Y15816429D01*
X30674642Y16316429D02*
X30746071Y16245000D01*
X30674642Y16173572D01*
X30603214Y16245000D01*
X30674642Y16316429D01*
X30674642Y16173572D01*
X29317500Y14816429D02*
X29317500Y16316429D01*
X29317500Y14887858D02*
X29460357Y14816429D01*
X29746071Y14816429D01*
X29888928Y14887858D01*
X29960357Y14959286D01*
X30031785Y15102143D01*
X30031785Y15530715D01*
X29960357Y15673572D01*
X29888928Y15745000D01*
X29746071Y15816429D01*
X29460357Y15816429D01*
X29317500Y15745000D01*
X27960357Y14816429D02*
X27960357Y16316429D01*
X27960357Y14887858D02*
X28103214Y14816429D01*
X28388928Y14816429D01*
X28531785Y14887858D01*
X28603214Y14959286D01*
X28674642Y15102143D01*
X28674642Y15530715D01*
X28603214Y15673572D01*
X28531785Y15745000D01*
X28388928Y15816429D01*
X28103214Y15816429D01*
X27960357Y15745000D01*
X27031785Y14816429D02*
X27174642Y14887858D01*
X27246071Y15030715D01*
X27246071Y16316429D01*
X25888928Y14887858D02*
X26031785Y14816429D01*
X26317500Y14816429D01*
X26460357Y14887858D01*
X26531785Y15030715D01*
X26531785Y15602143D01*
X26460357Y15745000D01*
X26317500Y15816429D01*
X26031785Y15816429D01*
X25888928Y15745000D01*
X25817500Y15602143D01*
X25817500Y15459286D01*
X26531785Y15316429D01*
X25174642Y14816429D02*
X25174642Y15816429D01*
X25174642Y15530715D02*
X25103214Y15673572D01*
X25031785Y15745000D01*
X24888928Y15816429D01*
X24746071Y15816429D01*
X38281785Y12401429D02*
X38281785Y13901429D01*
X37710357Y13901429D01*
X37567500Y13830000D01*
X37496071Y13758572D01*
X37424642Y13615715D01*
X37424642Y13401429D01*
X37496071Y13258572D01*
X37567500Y13187143D01*
X37710357Y13115715D01*
X38281785Y13115715D01*
X36781785Y12401429D02*
X36781785Y13901429D01*
X36424642Y13901429D01*
X36210357Y13830000D01*
X36067500Y13687143D01*
X35996071Y13544286D01*
X35924642Y13258572D01*
X35924642Y13044286D01*
X35996071Y12758572D01*
X36067500Y12615715D01*
X36210357Y12472858D01*
X36424642Y12401429D01*
X36781785Y12401429D01*
X35353214Y13758572D02*
X35281785Y13830000D01*
X35138928Y13901429D01*
X34781785Y13901429D01*
X34638928Y13830000D01*
X34567500Y13758572D01*
X34496071Y13615715D01*
X34496071Y13472858D01*
X34567500Y13258572D01*
X35424642Y12401429D01*
X34496071Y12401429D01*
X33567500Y13901429D02*
X33424642Y13901429D01*
X33281785Y13830000D01*
X33210357Y13758572D01*
X33138928Y13615715D01*
X33067500Y13330000D01*
X33067500Y12972858D01*
X33138928Y12687143D01*
X33210357Y12544286D01*
X33281785Y12472858D01*
X33424642Y12401429D01*
X33567500Y12401429D01*
X33710357Y12472858D01*
X33781785Y12544286D01*
X33853214Y12687143D01*
X33924642Y12972858D01*
X33924642Y13330000D01*
X33853214Y13615715D01*
X33781785Y13758572D01*
X33710357Y13830000D01*
X33567500Y13901429D01*
X31638928Y12401429D02*
X32496071Y12401429D01*
X32067500Y12401429D02*
X32067500Y13901429D01*
X32210357Y13687143D01*
X32353214Y13544286D01*
X32496071Y13472858D01*
X29996071Y13401429D02*
X29638928Y12401429D01*
X29281785Y13401429D01*
X27924642Y12401429D02*
X28781785Y12401429D01*
X28353214Y12401429D02*
X28353214Y13901429D01*
X28496071Y13687143D01*
X28638928Y13544286D01*
X28781785Y13472858D01*
X27281785Y12544286D02*
X27210357Y12472858D01*
X27281785Y12401429D01*
X27353214Y12472858D01*
X27281785Y12544286D01*
X27281785Y12401429D01*
X26281785Y13901429D02*
X26138928Y13901429D01*
X25996071Y13830000D01*
X25924642Y13758572D01*
X25853214Y13615715D01*
X25781785Y13330000D01*
X25781785Y12972858D01*
X25853214Y12687143D01*
X25924642Y12544286D01*
X25996071Y12472858D01*
X26138928Y12401429D01*
X26281785Y12401429D01*
X26424642Y12472858D01*
X26496071Y12544286D01*
X26567500Y12687143D01*
X26638928Y12972858D01*
X26638928Y13330000D01*
X26567500Y13615715D01*
X26496071Y13758572D01*
X26424642Y13830000D01*
X26281785Y13901429D01*
D10*
X-38324405Y8120000D02*
X-38229167Y8167620D01*
X-38086310Y8167620D01*
X-37943453Y8120000D01*
X-37848215Y8024762D01*
X-37800596Y7929524D01*
X-37752977Y7739048D01*
X-37752977Y7596191D01*
X-37800596Y7405715D01*
X-37848215Y7310477D01*
X-37943453Y7215239D01*
X-38086310Y7167620D01*
X-38181548Y7167620D01*
X-38324405Y7215239D01*
X-38372024Y7262858D01*
X-38372024Y7596191D01*
X-38181548Y7596191D01*
X-38800596Y7167620D02*
X-38800596Y8167620D01*
X-39372024Y7167620D01*
X-39372024Y8167620D01*
X-39848215Y7167620D02*
X-39848215Y8167620D01*
X-40086310Y8167620D01*
X-40229167Y8120000D01*
X-40324405Y8024762D01*
X-40372024Y7929524D01*
X-40419643Y7739048D01*
X-40419643Y7596191D01*
X-40372024Y7405715D01*
X-40324405Y7310477D01*
X-40229167Y7215239D01*
X-40086310Y7167620D01*
X-39848215Y7167620D01*
D11*
X-32437143Y12975000D02*
X-32365715Y13046429D01*
X-32222858Y13260715D01*
X-32151429Y13403572D01*
X-32080000Y13617858D01*
X-32008572Y13975000D01*
X-32008572Y14260715D01*
X-32080000Y14617858D01*
X-32151429Y14832143D01*
X-32222858Y14975000D01*
X-32365715Y15189286D01*
X-32437143Y15260715D01*
X-33865715Y13689286D02*
X-33794286Y13617858D01*
X-33580000Y13546429D01*
X-33437143Y13546429D01*
X-33222858Y13617858D01*
X-33080000Y13760715D01*
X-33008572Y13903572D01*
X-32937143Y14189286D01*
X-32937143Y14403572D01*
X-33008572Y14689286D01*
X-33080000Y14832143D01*
X-33222858Y14975000D01*
X-33437143Y15046429D01*
X-33580000Y15046429D01*
X-33794286Y14975000D01*
X-33865715Y14903572D01*
X-34365715Y12975000D02*
X-34437143Y13046429D01*
X-34580000Y13260715D01*
X-34651429Y13403572D01*
X-34722858Y13617858D01*
X-34794286Y13975000D01*
X-34794286Y14260715D01*
X-34722858Y14617858D01*
X-34651429Y14832143D01*
X-34580000Y14975000D01*
X-34437143Y15189286D01*
X-34365715Y15260715D01*
X-36580000Y14903572D02*
X-36651429Y14975000D01*
X-36794286Y15046429D01*
X-37151429Y15046429D01*
X-37294286Y14975000D01*
X-37365715Y14903572D01*
X-37437143Y14760715D01*
X-37437143Y14617858D01*
X-37365715Y14403572D01*
X-36508572Y13546429D01*
X-37437143Y13546429D01*
X-38365715Y15046429D02*
X-38508572Y15046429D01*
X-38651429Y14975000D01*
X-38722858Y14903572D01*
X-38794286Y14760715D01*
X-38865715Y14475000D01*
X-38865715Y14117858D01*
X-38794286Y13832143D01*
X-38722858Y13689286D01*
X-38651429Y13617858D01*
X-38508572Y13546429D01*
X-38365715Y13546429D01*
X-38222858Y13617858D01*
X-38151429Y13689286D01*
X-38080000Y13832143D01*
X-38008572Y14117858D01*
X-38008572Y14475000D01*
X-38080000Y14760715D01*
X-38151429Y14903572D01*
X-38222858Y14975000D01*
X-38365715Y15046429D01*
X-39437143Y14903572D02*
X-39508572Y14975000D01*
X-39651429Y15046429D01*
X-40008572Y15046429D01*
X-40151429Y14975000D01*
X-40222858Y14903572D01*
X-40294286Y14760715D01*
X-40294286Y14617858D01*
X-40222858Y14403572D01*
X-39365715Y13546429D01*
X-40294286Y13546429D01*
X-41722858Y13546429D02*
X-40865715Y13546429D01*
X-41294286Y13546429D02*
X-41294286Y15046429D01*
X-41151429Y14832143D01*
X-41008572Y14689286D01*
X-40865715Y14617858D01*
X-29258572Y12631429D02*
X-29615715Y11131429D01*
X-29901429Y12202858D01*
X-30187143Y11131429D01*
X-30544286Y12631429D01*
X-31687143Y11202858D02*
X-31544286Y11131429D01*
X-31258572Y11131429D01*
X-31115715Y11202858D01*
X-31044286Y11345715D01*
X-31044286Y11917143D01*
X-31115715Y12060000D01*
X-31258572Y12131429D01*
X-31544286Y12131429D01*
X-31687143Y12060000D01*
X-31758572Y11917143D01*
X-31758572Y11774286D01*
X-31044286Y11631429D01*
X-32330000Y11202858D02*
X-32472858Y11131429D01*
X-32758572Y11131429D01*
X-32901429Y11202858D01*
X-32972858Y11345715D01*
X-32972858Y11417143D01*
X-32901429Y11560000D01*
X-32758572Y11631429D01*
X-32544286Y11631429D01*
X-32401429Y11702858D01*
X-32330000Y11845715D01*
X-32330000Y11917143D01*
X-32401429Y12060000D01*
X-32544286Y12131429D01*
X-32758572Y12131429D01*
X-32901429Y12060000D01*
X-33830000Y11131429D02*
X-33687143Y11202858D01*
X-33615715Y11345715D01*
X-33615715Y12631429D01*
X-34972858Y11202858D02*
X-34830000Y11131429D01*
X-34544286Y11131429D01*
X-34401429Y11202858D01*
X-34330000Y11345715D01*
X-34330000Y11917143D01*
X-34401429Y12060000D01*
X-34544286Y12131429D01*
X-34830000Y12131429D01*
X-34972858Y12060000D01*
X-35044286Y11917143D01*
X-35044286Y11774286D01*
X-34330000Y11631429D01*
X-35544286Y12131429D02*
X-35901429Y11131429D01*
X-36258572Y12131429D02*
X-35901429Y11131429D01*
X-35758572Y10774286D01*
X-35687143Y10702858D01*
X-35544286Y10631429D01*
X-37972858Y11131429D02*
X-37972858Y12631429D01*
X-38615715Y11202858D02*
X-38758572Y11131429D01*
X-39044286Y11131429D01*
X-39187143Y11202858D01*
X-39258572Y11345715D01*
X-39258572Y11417143D01*
X-39187143Y11560000D01*
X-39044286Y11631429D01*
X-38830000Y11631429D01*
X-38687143Y11702858D01*
X-38615715Y11845715D01*
X-38615715Y11917143D01*
X-38687143Y12060000D01*
X-38830000Y12131429D01*
X-39044286Y12131429D01*
X-39187143Y12060000D01*
X-40544286Y11131429D02*
X-40544286Y11917143D01*
X-40472858Y12060000D01*
X-40330000Y12131429D01*
X-40044286Y12131429D01*
X-39901429Y12060000D01*
X-40544286Y11202858D02*
X-40401429Y11131429D01*
X-40044286Y11131429D01*
X-39901429Y11202858D01*
X-39830000Y11345715D01*
X-39830000Y11488572D01*
X-39901429Y11631429D01*
X-40044286Y11702858D01*
X-40401429Y11702858D01*
X-40544286Y11774286D01*
X-41901429Y11202858D02*
X-41758572Y11131429D01*
X-41472858Y11131429D01*
X-41330000Y11202858D01*
X-41258572Y11274286D01*
X-41187143Y11417143D01*
X-41187143Y11845715D01*
X-41258572Y11988572D01*
X-41330000Y12060000D01*
X-41472858Y12131429D01*
X-41758572Y12131429D01*
X-41901429Y12060000D01*
X-42544286Y11131429D02*
X-42544286Y12631429D01*
X-42687143Y11702858D02*
X-43115715Y11131429D01*
X-43115715Y12131429D02*
X-42544286Y11560000D01*
X-43687143Y11202858D02*
X-43830000Y11131429D01*
X-44115715Y11131429D01*
X-44258572Y11202858D01*
X-44330000Y11345715D01*
X-44330000Y11417143D01*
X-44258572Y11560000D01*
X-44115715Y11631429D01*
X-43901429Y11631429D01*
X-43758572Y11702858D01*
X-43687143Y11845715D01*
X-43687143Y11917143D01*
X-43758572Y12060000D01*
X-43901429Y12131429D01*
X-44115715Y12131429D01*
X-44258572Y12060000D01*
D12*
%TO.C,J3*%
X-17931191Y-19019523D02*
X-17931191Y-17749523D01*
X-18354524Y-18656666D01*
X-18777858Y-17749523D01*
X-18777858Y-19019523D01*
X-19382620Y-19019523D02*
X-19382620Y-17749523D01*
X-19987381Y-19019523D02*
X-19987381Y-17749523D01*
X-20289762Y-17749523D01*
X-20471191Y-17810000D01*
X-20592143Y-17930952D01*
X-20652620Y-18051904D01*
X-20713096Y-18293809D01*
X-20713096Y-18475238D01*
X-20652620Y-18717142D01*
X-20592143Y-18838095D01*
X-20471191Y-18959047D01*
X-20289762Y-19019523D01*
X-19987381Y-19019523D01*
X-21257381Y-19019523D02*
X-21257381Y-17749523D01*
X-22829762Y-19019523D02*
X-22829762Y-17749523D01*
X-23434524Y-18172857D02*
X-23434524Y-19019523D01*
X-23434524Y-18293809D02*
X-23495000Y-18233333D01*
X-23615953Y-18172857D01*
X-23797381Y-18172857D01*
X-23918334Y-18233333D01*
X-23978810Y-18354285D01*
X-23978810Y-19019523D01*
%TO.C,J4*%
X5654523Y-19019523D02*
X5654523Y-17749523D01*
X5231190Y-18656666D01*
X4807857Y-17749523D01*
X4807857Y-19019523D01*
X4203095Y-19019523D02*
X4203095Y-17749523D01*
X3598333Y-19019523D02*
X3598333Y-17749523D01*
X3295952Y-17749523D01*
X3114523Y-17810000D01*
X2993571Y-17930952D01*
X2933095Y-18051904D01*
X2872619Y-18293809D01*
X2872619Y-18475238D01*
X2933095Y-18717142D01*
X2993571Y-18838095D01*
X3114523Y-18959047D01*
X3295952Y-19019523D01*
X3598333Y-19019523D01*
X2328333Y-19019523D02*
X2328333Y-17749523D01*
X514047Y-17749523D02*
X272142Y-17749523D01*
X151190Y-17810000D01*
X30238Y-17930952D01*
X-30239Y-18172857D01*
X-30239Y-18596190D01*
X30238Y-18838095D01*
X151190Y-18959047D01*
X272142Y-19019523D01*
X514047Y-19019523D01*
X635000Y-18959047D01*
X755952Y-18838095D01*
X816428Y-18596190D01*
X816428Y-18172857D01*
X755952Y-17930952D01*
X635000Y-17810000D01*
X514047Y-17749523D01*
X-1118810Y-18172857D02*
X-1118810Y-19019523D01*
X-574524Y-18172857D02*
X-574524Y-18838095D01*
X-635000Y-18959047D01*
X-755953Y-19019523D01*
X-937381Y-19019523D01*
X-1058334Y-18959047D01*
X-1118810Y-18898571D01*
X-1542143Y-18172857D02*
X-2025953Y-18172857D01*
X-1723572Y-17749523D02*
X-1723572Y-18838095D01*
X-1784048Y-18959047D01*
X-1905000Y-19019523D01*
X-2025953Y-19019523D01*
%TD*%
M02*
