%TF.GenerationSoftware,KiCad,Pcbnew,(5.1.9)-1*%
%TF.CreationDate,2021-04-04T20:09:26-07:00*%
%TF.ProjectId,miditwiddle,6d696469-7477-4696-9464-6c652e6b6963,rev?*%
%TF.SameCoordinates,PX9157080PY60e4b00*%
%TF.FileFunction,Legend,Bot*%
%TF.FilePolarity,Positive*%
%FSLAX46Y46*%
G04 Gerber Fmt 4.6, Leading zero omitted, Abs format (unit mm)*
G04 Created by KiCad (PCBNEW (5.1.9)-1) date 2021-04-04 20:09:26*
%MOMM*%
%LPD*%
G01*
G04 APERTURE LIST*
%ADD10C,0.300000*%
%ADD11C,0.150000*%
%ADD12C,0.254000*%
G04 APERTURE END LIST*
D10*
X-32437143Y13042500D02*
X-32365715Y13113929D01*
X-32222858Y13328215D01*
X-32151429Y13471072D01*
X-32080000Y13685358D01*
X-32008572Y14042500D01*
X-32008572Y14328215D01*
X-32080000Y14685358D01*
X-32151429Y14899643D01*
X-32222858Y15042500D01*
X-32365715Y15256786D01*
X-32437143Y15328215D01*
X-33865715Y13756786D02*
X-33794286Y13685358D01*
X-33580000Y13613929D01*
X-33437143Y13613929D01*
X-33222858Y13685358D01*
X-33080000Y13828215D01*
X-33008572Y13971072D01*
X-32937143Y14256786D01*
X-32937143Y14471072D01*
X-33008572Y14756786D01*
X-33080000Y14899643D01*
X-33222858Y15042500D01*
X-33437143Y15113929D01*
X-33580000Y15113929D01*
X-33794286Y15042500D01*
X-33865715Y14971072D01*
X-34365715Y13042500D02*
X-34437143Y13113929D01*
X-34580000Y13328215D01*
X-34651429Y13471072D01*
X-34722858Y13685358D01*
X-34794286Y14042500D01*
X-34794286Y14328215D01*
X-34722858Y14685358D01*
X-34651429Y14899643D01*
X-34580000Y15042500D01*
X-34437143Y15256786D01*
X-34365715Y15328215D01*
X-36580000Y14971072D02*
X-36651429Y15042500D01*
X-36794286Y15113929D01*
X-37151429Y15113929D01*
X-37294286Y15042500D01*
X-37365715Y14971072D01*
X-37437143Y14828215D01*
X-37437143Y14685358D01*
X-37365715Y14471072D01*
X-36508572Y13613929D01*
X-37437143Y13613929D01*
X-38365715Y15113929D02*
X-38508572Y15113929D01*
X-38651429Y15042500D01*
X-38722858Y14971072D01*
X-38794286Y14828215D01*
X-38865715Y14542500D01*
X-38865715Y14185358D01*
X-38794286Y13899643D01*
X-38722858Y13756786D01*
X-38651429Y13685358D01*
X-38508572Y13613929D01*
X-38365715Y13613929D01*
X-38222858Y13685358D01*
X-38151429Y13756786D01*
X-38080000Y13899643D01*
X-38008572Y14185358D01*
X-38008572Y14542500D01*
X-38080000Y14828215D01*
X-38151429Y14971072D01*
X-38222858Y15042500D01*
X-38365715Y15113929D01*
X-39437143Y14971072D02*
X-39508572Y15042500D01*
X-39651429Y15113929D01*
X-40008572Y15113929D01*
X-40151429Y15042500D01*
X-40222858Y14971072D01*
X-40294286Y14828215D01*
X-40294286Y14685358D01*
X-40222858Y14471072D01*
X-39365715Y13613929D01*
X-40294286Y13613929D01*
X-41722858Y13613929D02*
X-40865715Y13613929D01*
X-41294286Y13613929D02*
X-41294286Y15113929D01*
X-41151429Y14899643D01*
X-41008572Y14756786D01*
X-40865715Y14685358D01*
X-29258572Y12563929D02*
X-29615715Y11063929D01*
X-29901429Y12135358D01*
X-30187143Y11063929D01*
X-30544286Y12563929D01*
X-31687143Y11135358D02*
X-31544286Y11063929D01*
X-31258572Y11063929D01*
X-31115715Y11135358D01*
X-31044286Y11278215D01*
X-31044286Y11849643D01*
X-31115715Y11992500D01*
X-31258572Y12063929D01*
X-31544286Y12063929D01*
X-31687143Y11992500D01*
X-31758572Y11849643D01*
X-31758572Y11706786D01*
X-31044286Y11563929D01*
X-32330000Y11135358D02*
X-32472858Y11063929D01*
X-32758572Y11063929D01*
X-32901429Y11135358D01*
X-32972858Y11278215D01*
X-32972858Y11349643D01*
X-32901429Y11492500D01*
X-32758572Y11563929D01*
X-32544286Y11563929D01*
X-32401429Y11635358D01*
X-32330000Y11778215D01*
X-32330000Y11849643D01*
X-32401429Y11992500D01*
X-32544286Y12063929D01*
X-32758572Y12063929D01*
X-32901429Y11992500D01*
X-33830000Y11063929D02*
X-33687143Y11135358D01*
X-33615715Y11278215D01*
X-33615715Y12563929D01*
X-34972858Y11135358D02*
X-34830000Y11063929D01*
X-34544286Y11063929D01*
X-34401429Y11135358D01*
X-34330000Y11278215D01*
X-34330000Y11849643D01*
X-34401429Y11992500D01*
X-34544286Y12063929D01*
X-34830000Y12063929D01*
X-34972858Y11992500D01*
X-35044286Y11849643D01*
X-35044286Y11706786D01*
X-34330000Y11563929D01*
X-35544286Y12063929D02*
X-35901429Y11063929D01*
X-36258572Y12063929D02*
X-35901429Y11063929D01*
X-35758572Y10706786D01*
X-35687143Y10635358D01*
X-35544286Y10563929D01*
X-37972858Y11063929D02*
X-37972858Y12563929D01*
X-38615715Y11135358D02*
X-38758572Y11063929D01*
X-39044286Y11063929D01*
X-39187143Y11135358D01*
X-39258572Y11278215D01*
X-39258572Y11349643D01*
X-39187143Y11492500D01*
X-39044286Y11563929D01*
X-38830000Y11563929D01*
X-38687143Y11635358D01*
X-38615715Y11778215D01*
X-38615715Y11849643D01*
X-38687143Y11992500D01*
X-38830000Y12063929D01*
X-39044286Y12063929D01*
X-39187143Y11992500D01*
X-40544286Y11063929D02*
X-40544286Y11849643D01*
X-40472858Y11992500D01*
X-40330000Y12063929D01*
X-40044286Y12063929D01*
X-39901429Y11992500D01*
X-40544286Y11135358D02*
X-40401429Y11063929D01*
X-40044286Y11063929D01*
X-39901429Y11135358D01*
X-39830000Y11278215D01*
X-39830000Y11421072D01*
X-39901429Y11563929D01*
X-40044286Y11635358D01*
X-40401429Y11635358D01*
X-40544286Y11706786D01*
X-41901429Y11135358D02*
X-41758572Y11063929D01*
X-41472858Y11063929D01*
X-41330000Y11135358D01*
X-41258572Y11206786D01*
X-41187143Y11349643D01*
X-41187143Y11778215D01*
X-41258572Y11921072D01*
X-41330000Y11992500D01*
X-41472858Y12063929D01*
X-41758572Y12063929D01*
X-41901429Y11992500D01*
X-42544286Y11063929D02*
X-42544286Y12563929D01*
X-42687143Y11635358D02*
X-43115715Y11063929D01*
X-43115715Y12063929D02*
X-42544286Y11492500D01*
X-43687143Y11135358D02*
X-43830000Y11063929D01*
X-44115715Y11063929D01*
X-44258572Y11135358D01*
X-44330000Y11278215D01*
X-44330000Y11349643D01*
X-44258572Y11492500D01*
X-44115715Y11563929D01*
X-43901429Y11563929D01*
X-43758572Y11635358D01*
X-43687143Y11778215D01*
X-43687143Y11849643D01*
X-43758572Y11992500D01*
X-43901429Y12063929D01*
X-44115715Y12063929D01*
X-44258572Y11992500D01*
X39174642Y14883929D02*
X39174642Y16383929D01*
X38674642Y15312500D01*
X38174642Y16383929D01*
X38174642Y14883929D01*
X37460357Y14883929D02*
X37460357Y16383929D01*
X36746071Y14883929D02*
X36746071Y16383929D01*
X36388928Y16383929D01*
X36174642Y16312500D01*
X36031785Y16169643D01*
X35960357Y16026786D01*
X35888928Y15741072D01*
X35888928Y15526786D01*
X35960357Y15241072D01*
X36031785Y15098215D01*
X36174642Y14955358D01*
X36388928Y14883929D01*
X36746071Y14883929D01*
X35246071Y14883929D02*
X35246071Y16383929D01*
X33603214Y16383929D02*
X32746071Y16383929D01*
X33174642Y14883929D02*
X33174642Y16383929D01*
X32388928Y15883929D02*
X32103214Y14883929D01*
X31817500Y15598215D01*
X31531785Y14883929D01*
X31246071Y15883929D01*
X30674642Y14883929D02*
X30674642Y15883929D01*
X30674642Y16383929D02*
X30746071Y16312500D01*
X30674642Y16241072D01*
X30603214Y16312500D01*
X30674642Y16383929D01*
X30674642Y16241072D01*
X29317500Y14883929D02*
X29317500Y16383929D01*
X29317500Y14955358D02*
X29460357Y14883929D01*
X29746071Y14883929D01*
X29888928Y14955358D01*
X29960357Y15026786D01*
X30031785Y15169643D01*
X30031785Y15598215D01*
X29960357Y15741072D01*
X29888928Y15812500D01*
X29746071Y15883929D01*
X29460357Y15883929D01*
X29317500Y15812500D01*
X27960357Y14883929D02*
X27960357Y16383929D01*
X27960357Y14955358D02*
X28103214Y14883929D01*
X28388928Y14883929D01*
X28531785Y14955358D01*
X28603214Y15026786D01*
X28674642Y15169643D01*
X28674642Y15598215D01*
X28603214Y15741072D01*
X28531785Y15812500D01*
X28388928Y15883929D01*
X28103214Y15883929D01*
X27960357Y15812500D01*
X27031785Y14883929D02*
X27174642Y14955358D01*
X27246071Y15098215D01*
X27246071Y16383929D01*
X25888928Y14955358D02*
X26031785Y14883929D01*
X26317500Y14883929D01*
X26460357Y14955358D01*
X26531785Y15098215D01*
X26531785Y15669643D01*
X26460357Y15812500D01*
X26317500Y15883929D01*
X26031785Y15883929D01*
X25888928Y15812500D01*
X25817500Y15669643D01*
X25817500Y15526786D01*
X26531785Y15383929D01*
X25174642Y14883929D02*
X25174642Y15883929D01*
X25174642Y15598215D02*
X25103214Y15741072D01*
X25031785Y15812500D01*
X24888928Y15883929D01*
X24746071Y15883929D01*
X38281785Y12333929D02*
X38281785Y13833929D01*
X37710357Y13833929D01*
X37567500Y13762500D01*
X37496071Y13691072D01*
X37424642Y13548215D01*
X37424642Y13333929D01*
X37496071Y13191072D01*
X37567500Y13119643D01*
X37710357Y13048215D01*
X38281785Y13048215D01*
X36781785Y12333929D02*
X36781785Y13833929D01*
X36424642Y13833929D01*
X36210357Y13762500D01*
X36067500Y13619643D01*
X35996071Y13476786D01*
X35924642Y13191072D01*
X35924642Y12976786D01*
X35996071Y12691072D01*
X36067500Y12548215D01*
X36210357Y12405358D01*
X36424642Y12333929D01*
X36781785Y12333929D01*
X35353214Y13691072D02*
X35281785Y13762500D01*
X35138928Y13833929D01*
X34781785Y13833929D01*
X34638928Y13762500D01*
X34567500Y13691072D01*
X34496071Y13548215D01*
X34496071Y13405358D01*
X34567500Y13191072D01*
X35424642Y12333929D01*
X34496071Y12333929D01*
X33567500Y13833929D02*
X33424642Y13833929D01*
X33281785Y13762500D01*
X33210357Y13691072D01*
X33138928Y13548215D01*
X33067500Y13262500D01*
X33067500Y12905358D01*
X33138928Y12619643D01*
X33210357Y12476786D01*
X33281785Y12405358D01*
X33424642Y12333929D01*
X33567500Y12333929D01*
X33710357Y12405358D01*
X33781785Y12476786D01*
X33853214Y12619643D01*
X33924642Y12905358D01*
X33924642Y13262500D01*
X33853214Y13548215D01*
X33781785Y13691072D01*
X33710357Y13762500D01*
X33567500Y13833929D01*
X31638928Y12333929D02*
X32496071Y12333929D01*
X32067500Y12333929D02*
X32067500Y13833929D01*
X32210357Y13619643D01*
X32353214Y13476786D01*
X32496071Y13405358D01*
X29996071Y13333929D02*
X29638928Y12333929D01*
X29281785Y13333929D01*
X27924642Y12333929D02*
X28781785Y12333929D01*
X28353214Y12333929D02*
X28353214Y13833929D01*
X28496071Y13619643D01*
X28638928Y13476786D01*
X28781785Y13405358D01*
X27281785Y12476786D02*
X27210357Y12405358D01*
X27281785Y12333929D01*
X27353214Y12405358D01*
X27281785Y12476786D01*
X27281785Y12333929D01*
X26281785Y13833929D02*
X26138928Y13833929D01*
X25996071Y13762500D01*
X25924642Y13691072D01*
X25853214Y13548215D01*
X25781785Y13262500D01*
X25781785Y12905358D01*
X25853214Y12619643D01*
X25924642Y12476786D01*
X25996071Y12405358D01*
X26138928Y12333929D01*
X26281785Y12333929D01*
X26424642Y12405358D01*
X26496071Y12476786D01*
X26567500Y12619643D01*
X26638928Y12905358D01*
X26638928Y13262500D01*
X26567500Y13548215D01*
X26496071Y13691072D01*
X26424642Y13762500D01*
X26281785Y13833929D01*
D11*
X-38276786Y3087620D02*
X-37800596Y3087620D01*
X-37752977Y2611429D01*
X-37800596Y2659048D01*
X-37895834Y2706667D01*
X-38133929Y2706667D01*
X-38229167Y2659048D01*
X-38276786Y2611429D01*
X-38324405Y2516191D01*
X-38324405Y2278096D01*
X-38276786Y2182858D01*
X-38229167Y2135239D01*
X-38133929Y2087620D01*
X-37895834Y2087620D01*
X-37800596Y2135239D01*
X-37752977Y2182858D01*
X-38610120Y3087620D02*
X-38943453Y2087620D01*
X-39276786Y3087620D01*
X-37800596Y4627620D02*
X-37800596Y5627620D01*
X-38133929Y4913334D01*
X-38467262Y5627620D01*
X-38467262Y4627620D01*
X-39133929Y5627620D02*
X-39324405Y5627620D01*
X-39419643Y5580000D01*
X-39514881Y5484762D01*
X-39562500Y5294286D01*
X-39562500Y4960953D01*
X-39514881Y4770477D01*
X-39419643Y4675239D01*
X-39324405Y4627620D01*
X-39133929Y4627620D01*
X-39038691Y4675239D01*
X-38943453Y4770477D01*
X-38895834Y4960953D01*
X-38895834Y5294286D01*
X-38943453Y5484762D01*
X-39038691Y5580000D01*
X-39133929Y5627620D01*
X-39943453Y4675239D02*
X-40086310Y4627620D01*
X-40324405Y4627620D01*
X-40419643Y4675239D01*
X-40467262Y4722858D01*
X-40514881Y4818096D01*
X-40514881Y4913334D01*
X-40467262Y5008572D01*
X-40419643Y5056191D01*
X-40324405Y5103810D01*
X-40133929Y5151429D01*
X-40038691Y5199048D01*
X-39991072Y5246667D01*
X-39943453Y5341905D01*
X-39943453Y5437143D01*
X-39991072Y5532381D01*
X-40038691Y5580000D01*
X-40133929Y5627620D01*
X-40372024Y5627620D01*
X-40514881Y5580000D01*
X-40943453Y4627620D02*
X-40943453Y5627620D01*
X-38324405Y8120000D02*
X-38229167Y8167620D01*
X-38086310Y8167620D01*
X-37943453Y8120000D01*
X-37848215Y8024762D01*
X-37800596Y7929524D01*
X-37752977Y7739048D01*
X-37752977Y7596191D01*
X-37800596Y7405715D01*
X-37848215Y7310477D01*
X-37943453Y7215239D01*
X-38086310Y7167620D01*
X-38181548Y7167620D01*
X-38324405Y7215239D01*
X-38372024Y7262858D01*
X-38372024Y7596191D01*
X-38181548Y7596191D01*
X-38800596Y7167620D02*
X-38800596Y8167620D01*
X-39372024Y7167620D01*
X-39372024Y8167620D01*
X-39848215Y7167620D02*
X-39848215Y8167620D01*
X-40086310Y8167620D01*
X-40229167Y8120000D01*
X-40324405Y8024762D01*
X-40372024Y7929524D01*
X-40419643Y7739048D01*
X-40419643Y7596191D01*
X-40372024Y7405715D01*
X-40324405Y7310477D01*
X-40229167Y7215239D01*
X-40086310Y7167620D01*
X-39848215Y7167620D01*
X-28906548Y2087620D02*
X-28906548Y3087620D01*
X-29239881Y2373334D01*
X-29573215Y3087620D01*
X-29573215Y2087620D01*
X-30049405Y2087620D02*
X-30049405Y3087620D01*
X-30477977Y2135239D02*
X-30620834Y2087620D01*
X-30858929Y2087620D01*
X-30954167Y2135239D01*
X-31001786Y2182858D01*
X-31049405Y2278096D01*
X-31049405Y2373334D01*
X-31001786Y2468572D01*
X-30954167Y2516191D01*
X-30858929Y2563810D01*
X-30668453Y2611429D01*
X-30573215Y2659048D01*
X-30525596Y2706667D01*
X-30477977Y2801905D01*
X-30477977Y2897143D01*
X-30525596Y2992381D01*
X-30573215Y3040000D01*
X-30668453Y3087620D01*
X-30906548Y3087620D01*
X-31049405Y3040000D01*
X-31668453Y3087620D02*
X-31858929Y3087620D01*
X-31954167Y3040000D01*
X-32049405Y2944762D01*
X-32097024Y2754286D01*
X-32097024Y2420953D01*
X-32049405Y2230477D01*
X-31954167Y2135239D01*
X-31858929Y2087620D01*
X-31668453Y2087620D01*
X-31573215Y2135239D01*
X-31477977Y2230477D01*
X-31430358Y2420953D01*
X-31430358Y2754286D01*
X-31477977Y2944762D01*
X-31573215Y3040000D01*
X-31668453Y3087620D01*
X-29525596Y4675239D02*
X-29668453Y4627620D01*
X-29906548Y4627620D01*
X-30001786Y4675239D01*
X-30049405Y4722858D01*
X-30097024Y4818096D01*
X-30097024Y4913334D01*
X-30049405Y5008572D01*
X-30001786Y5056191D01*
X-29906548Y5103810D01*
X-29716072Y5151429D01*
X-29620834Y5199048D01*
X-29573215Y5246667D01*
X-29525596Y5341905D01*
X-29525596Y5437143D01*
X-29573215Y5532381D01*
X-29620834Y5580000D01*
X-29716072Y5627620D01*
X-29954167Y5627620D01*
X-30097024Y5580000D01*
X-31097024Y4722858D02*
X-31049405Y4675239D01*
X-30906548Y4627620D01*
X-30811310Y4627620D01*
X-30668453Y4675239D01*
X-30573215Y4770477D01*
X-30525596Y4865715D01*
X-30477977Y5056191D01*
X-30477977Y5199048D01*
X-30525596Y5389524D01*
X-30573215Y5484762D01*
X-30668453Y5580000D01*
X-30811310Y5627620D01*
X-30906548Y5627620D01*
X-31049405Y5580000D01*
X-31097024Y5532381D01*
X-31525596Y4627620D02*
X-31525596Y5627620D01*
X-32097024Y4627620D02*
X-31668453Y5199048D01*
X-32097024Y5627620D02*
X-31525596Y5056191D01*
X-29001786Y7167620D02*
X-28668453Y7643810D01*
X-28430358Y7167620D02*
X-28430358Y8167620D01*
X-28811310Y8167620D01*
X-28906548Y8120000D01*
X-28954167Y8072381D01*
X-29001786Y7977143D01*
X-29001786Y7834286D01*
X-28954167Y7739048D01*
X-28906548Y7691429D01*
X-28811310Y7643810D01*
X-28430358Y7643810D01*
X-29811310Y7215239D02*
X-29716072Y7167620D01*
X-29525596Y7167620D01*
X-29430358Y7215239D01*
X-29382739Y7310477D01*
X-29382739Y7691429D01*
X-29430358Y7786667D01*
X-29525596Y7834286D01*
X-29716072Y7834286D01*
X-29811310Y7786667D01*
X-29858929Y7691429D01*
X-29858929Y7596191D01*
X-29382739Y7500953D01*
X-30239881Y7215239D02*
X-30335120Y7167620D01*
X-30525596Y7167620D01*
X-30620834Y7215239D01*
X-30668453Y7310477D01*
X-30668453Y7358096D01*
X-30620834Y7453334D01*
X-30525596Y7500953D01*
X-30382739Y7500953D01*
X-30287500Y7548572D01*
X-30239881Y7643810D01*
X-30239881Y7691429D01*
X-30287500Y7786667D01*
X-30382739Y7834286D01*
X-30525596Y7834286D01*
X-30620834Y7786667D01*
X-31477977Y7215239D02*
X-31382739Y7167620D01*
X-31192262Y7167620D01*
X-31097024Y7215239D01*
X-31049405Y7310477D01*
X-31049405Y7691429D01*
X-31097024Y7786667D01*
X-31192262Y7834286D01*
X-31382739Y7834286D01*
X-31477977Y7786667D01*
X-31525596Y7691429D01*
X-31525596Y7596191D01*
X-31049405Y7500953D01*
X-31811310Y7834286D02*
X-32192262Y7834286D01*
X-31954167Y8167620D02*
X-31954167Y7310477D01*
X-32001786Y7215239D01*
X-32097024Y7167620D01*
X-32192262Y7167620D01*
%TO.C,J4*%
D12*
X5654523Y-19019523D02*
X5654523Y-17749523D01*
X5231190Y-18656666D01*
X4807857Y-17749523D01*
X4807857Y-19019523D01*
X4203095Y-19019523D02*
X4203095Y-17749523D01*
X3598333Y-19019523D02*
X3598333Y-17749523D01*
X3295952Y-17749523D01*
X3114523Y-17810000D01*
X2993571Y-17930952D01*
X2933095Y-18051904D01*
X2872619Y-18293809D01*
X2872619Y-18475238D01*
X2933095Y-18717142D01*
X2993571Y-18838095D01*
X3114523Y-18959047D01*
X3295952Y-19019523D01*
X3598333Y-19019523D01*
X2328333Y-19019523D02*
X2328333Y-17749523D01*
X514047Y-17749523D02*
X272142Y-17749523D01*
X151190Y-17810000D01*
X30238Y-17930952D01*
X-30239Y-18172857D01*
X-30239Y-18596190D01*
X30238Y-18838095D01*
X151190Y-18959047D01*
X272142Y-19019523D01*
X514047Y-19019523D01*
X635000Y-18959047D01*
X755952Y-18838095D01*
X816428Y-18596190D01*
X816428Y-18172857D01*
X755952Y-17930952D01*
X635000Y-17810000D01*
X514047Y-17749523D01*
X-1118810Y-18172857D02*
X-1118810Y-19019523D01*
X-574524Y-18172857D02*
X-574524Y-18838095D01*
X-635000Y-18959047D01*
X-755953Y-19019523D01*
X-937381Y-19019523D01*
X-1058334Y-18959047D01*
X-1118810Y-18898571D01*
X-1542143Y-18172857D02*
X-2025953Y-18172857D01*
X-1723572Y-17749523D02*
X-1723572Y-18838095D01*
X-1784048Y-18959047D01*
X-1905000Y-19019523D01*
X-2025953Y-19019523D01*
%TO.C,J3*%
X-17931191Y-19019523D02*
X-17931191Y-17749523D01*
X-18354524Y-18656666D01*
X-18777858Y-17749523D01*
X-18777858Y-19019523D01*
X-19382620Y-19019523D02*
X-19382620Y-17749523D01*
X-19987381Y-19019523D02*
X-19987381Y-17749523D01*
X-20289762Y-17749523D01*
X-20471191Y-17810000D01*
X-20592143Y-17930952D01*
X-20652620Y-18051904D01*
X-20713096Y-18293809D01*
X-20713096Y-18475238D01*
X-20652620Y-18717142D01*
X-20592143Y-18838095D01*
X-20471191Y-18959047D01*
X-20289762Y-19019523D01*
X-19987381Y-19019523D01*
X-21257381Y-19019523D02*
X-21257381Y-17749523D01*
X-22829762Y-19019523D02*
X-22829762Y-17749523D01*
X-23434524Y-18172857D02*
X-23434524Y-19019523D01*
X-23434524Y-18293809D02*
X-23495000Y-18233333D01*
X-23615953Y-18172857D01*
X-23797381Y-18172857D01*
X-23918334Y-18233333D01*
X-23978810Y-18354285D01*
X-23978810Y-19019523D01*
%TD*%
M02*
