%TF.GenerationSoftware,KiCad,Pcbnew,(5.1.9)-1*%
%TF.CreationDate,2021-04-04T20:09:26-07:00*%
%TF.ProjectId,miditwiddle,6d696469-7477-4696-9464-6c652e6b6963,rev?*%
%TF.SameCoordinates,PX9157080PY60e4b00*%
%TF.FileFunction,Profile,NP*%
%FSLAX46Y46*%
G04 Gerber Fmt 4.6, Leading zero omitted, Abs format (unit mm)*
G04 Created by KiCad (PCBNEW (5.1.9)-1) date 2021-04-04 20:09:26*
%MOMM*%
%LPD*%
G01*
G04 APERTURE LIST*
%TA.AperFunction,Profile*%
%ADD10C,0.050000*%
%TD*%
G04 APERTURE END LIST*
D10*
X-31000000Y26000000D02*
X31000000Y26000000D01*
X33000000Y24000000D02*
G75*
G02*
X32000000Y25000000I0J1000000D01*
G01*
X31000000Y26000000D02*
G75*
G02*
X32000000Y25000000I0J-1000000D01*
G01*
X-32000000Y25000000D02*
G75*
G02*
X-31000000Y26000000I1000000J0D01*
G01*
X-32000000Y25000000D02*
G75*
G02*
X-33000000Y24000000I-1000000J0D01*
G01*
X33000000Y24000000D02*
X47000000Y24000000D01*
X11600000Y-25000000D02*
X-30500000Y-25000000D01*
X12100000Y-24500000D02*
G75*
G02*
X12600000Y-24000000I500000J0D01*
G01*
X12100000Y-24500000D02*
G75*
G02*
X11600000Y-25000000I-500000J0D01*
G01*
X-31500000Y-24000000D02*
G75*
G02*
X-31000000Y-24500000I0J-500000D01*
G01*
X-30500000Y-25000000D02*
G75*
G02*
X-31000000Y-24500000I0J500000D01*
G01*
X47000000Y-24000000D02*
X12600000Y-24000000D01*
X-47000000Y-24000000D02*
G75*
G02*
X-49000000Y-22000000I0J2000000D01*
G01*
X-49000000Y22000000D02*
G75*
G02*
X-47000000Y24000000I2000000J0D01*
G01*
X47000000Y24000000D02*
G75*
G02*
X49000000Y22000000I0J-2000000D01*
G01*
X49000000Y-22000000D02*
G75*
G02*
X47000000Y-24000000I-2000000J0D01*
G01*
X-43250000Y3250000D02*
G75*
G02*
X-43250000Y-3250000I0J-3250000D01*
G01*
X43250000Y-3250000D02*
G75*
G02*
X43250000Y3250000I0J3250000D01*
G01*
X49000000Y-3250000D02*
X49000000Y-22000000D01*
X43250000Y-3250000D02*
X49000000Y-3250000D01*
X49000000Y3250000D02*
X43250000Y3250000D01*
X49000000Y22000000D02*
X49000000Y3250000D01*
X-47000000Y24000000D02*
X-33000000Y24000000D01*
X-49000000Y3250000D02*
X-49000000Y22000000D01*
X-43250000Y3250000D02*
X-49000000Y3250000D01*
X-49000000Y-3250000D02*
X-43250000Y-3250000D01*
X-49000000Y-22000000D02*
X-49000000Y-3250000D01*
X-31500000Y-24000000D02*
X-47000000Y-24000000D01*
M02*
