%TF.GenerationSoftware,KiCad,Pcbnew,(5.1.9)-1*%
%TF.CreationDate,2021-04-04T20:09:26-07:00*%
%TF.ProjectId,miditwiddle,6d696469-7477-4696-9464-6c652e6b6963,rev?*%
%TF.SameCoordinates,PX9157080PY60e4b00*%
%TF.FileFunction,Soldermask,Top*%
%TF.FilePolarity,Negative*%
%FSLAX46Y46*%
G04 Gerber Fmt 4.6, Leading zero omitted, Abs format (unit mm)*
G04 Created by KiCad (PCBNEW (5.1.9)-1) date 2021-04-04 20:09:26*
%MOMM*%
%LPD*%
G01*
G04 APERTURE LIST*
%ADD10C,1.860000*%
%ADD11C,2.100000*%
%ADD12C,1.800000*%
%ADD13C,4.600001*%
%ADD14C,1.600000*%
%ADD15O,2.200000X2.200000*%
%ADD16O,1.600000X1.600000*%
%ADD17C,3.200000*%
%ADD18O,1.500000X2.500000*%
%ADD19O,2.200000X3.500000*%
%ADD20O,2.200000X3.500001*%
%ADD21C,1.750000*%
%ADD22O,1.700000X1.700000*%
%ADD23C,1.500000*%
%ADD24O,1.600000X2.400000*%
%ADD25C,1.300000*%
%ADD26C,1.700000*%
G04 APERTURE END LIST*
D10*
%TO.C,J4*%
X-3095000Y-23470000D03*
X6905000Y-23470000D03*
D11*
X-3095000Y-11470000D03*
X6905000Y-11470000D03*
X-5595000Y-13970000D03*
X1905000Y-13970000D03*
X9405000Y-13970000D03*
%TD*%
D10*
%TO.C,J3*%
X-25955000Y-23470000D03*
X-15955000Y-23470000D03*
D11*
X-25955000Y-11470000D03*
X-15955000Y-11470000D03*
X-28455000Y-13970000D03*
X-20955000Y-13970000D03*
X-13455000Y-13970000D03*
%TD*%
D12*
%TO.C,SW5*%
X-6310000Y18137500D03*
X-1310000Y18137500D03*
D13*
X2490000Y17137500D03*
X-10110000Y17137500D03*
D12*
X-1310000Y20637500D03*
X-3810000Y20637500D03*
X-6310000Y20637500D03*
%TD*%
D14*
%TO.C,C8*%
X-4445000Y-1865000D03*
X-4445000Y635000D03*
%TD*%
%TO.C,C7*%
X-1905000Y-1865000D03*
X-1905000Y635000D03*
%TD*%
%TO.C,C3*%
G36*
G01*
X21050000Y-1670000D02*
X21050000Y-870000D01*
G75*
G02*
X21450000Y-470000I400000J0D01*
G01*
X22250000Y-470000D01*
G75*
G02*
X22650000Y-870000I0J-400000D01*
G01*
X22650000Y-1670000D01*
G75*
G02*
X22250000Y-2070000I-400000J0D01*
G01*
X21450000Y-2070000D01*
G75*
G02*
X21050000Y-1670000I0J400000D01*
G01*
G37*
X23850000Y-1270000D03*
%TD*%
D15*
%TO.C,D1*%
X30480000Y8890000D03*
G36*
G01*
X31030000Y-2370000D02*
X29930000Y-2370000D01*
G75*
G02*
X29380000Y-1820000I0J550000D01*
G01*
X29380000Y-720000D01*
G75*
G02*
X29930000Y-170000I550000J0D01*
G01*
X31030000Y-170000D01*
G75*
G02*
X31580000Y-720000I0J-550000D01*
G01*
X31580000Y-1820000D01*
G75*
G02*
X31030000Y-2370000I-550000J0D01*
G01*
G37*
%TD*%
D16*
%TO.C,R6*%
X13335000Y11430000D03*
D14*
X13335000Y3810000D03*
%TD*%
D17*
%TO.C,MH3*%
X-35560000Y-20320000D03*
%TD*%
%TO.C,MH4*%
X35560000Y-20320000D03*
%TD*%
%TO.C,MH2*%
X35560000Y20320000D03*
%TD*%
%TO.C,MH1*%
X-35560000Y20320000D03*
%TD*%
D18*
%TO.C,SW1*%
X28670000Y23495000D03*
X26670000Y23495000D03*
X24670000Y23495000D03*
D19*
X30770000Y23495000D03*
X22570000Y23495000D03*
%TD*%
D18*
%TO.C,SW3*%
X-15145000Y23495000D03*
X-17145000Y23495000D03*
X-19145000Y23495000D03*
D20*
X-13045000Y23495000D03*
X-21245000Y23495000D03*
%TD*%
D11*
%TO.C,SW2*%
X13635000Y-17195000D03*
D21*
X14895000Y-19685000D03*
X19395000Y-19685000D03*
D11*
X20645000Y-17195000D03*
%TD*%
D22*
%TO.C,JP1*%
X33655000Y-5715000D03*
X33655000Y-8255000D03*
X31115000Y-5715000D03*
X31115000Y-8255000D03*
%TD*%
D23*
%TO.C,Y1*%
X-11530000Y-635000D03*
X-16410000Y-635000D03*
%TD*%
D11*
%TO.C,SW4*%
X-23795000Y17830000D03*
D21*
X-25055000Y20320000D03*
X-29555000Y20320000D03*
D11*
X-30805000Y17830000D03*
%TD*%
D12*
%TO.C,D3*%
X17145000Y20320000D03*
G36*
G01*
X20585000Y20770000D02*
X20585000Y19870000D01*
G75*
G02*
X20135000Y19420000I-450000J0D01*
G01*
X19235000Y19420000D01*
G75*
G02*
X18785000Y19870000I0J450000D01*
G01*
X18785000Y20770000D01*
G75*
G02*
X19235000Y21220000I450000J0D01*
G01*
X20135000Y21220000D01*
G75*
G02*
X20585000Y20770000I0J-450000D01*
G01*
G37*
%TD*%
D24*
%TO.C,U3*%
X-41275000Y-6985000D03*
X-33655000Y-14605000D03*
X-38735000Y-6985000D03*
X-36195000Y-14605000D03*
X-36195000Y-6985000D03*
X-38735000Y-14605000D03*
X-33655000Y-6985000D03*
G36*
G01*
X-40875000Y-15805000D02*
X-41675000Y-15805000D01*
G75*
G02*
X-42075000Y-15405000I0J400000D01*
G01*
X-42075000Y-13805000D01*
G75*
G02*
X-41675000Y-13405000I400000J0D01*
G01*
X-40875000Y-13405000D01*
G75*
G02*
X-40475000Y-13805000I0J-400000D01*
G01*
X-40475000Y-15405000D01*
G75*
G02*
X-40875000Y-15805000I-400000J0D01*
G01*
G37*
%TD*%
%TO.C,U2*%
G36*
G01*
X-22460000Y2610000D02*
X-23260000Y2610000D01*
G75*
G02*
X-23660000Y3010000I0J400000D01*
G01*
X-23660000Y4610000D01*
G75*
G02*
X-23260000Y5010000I400000J0D01*
G01*
X-22460000Y5010000D01*
G75*
G02*
X-22060000Y4610000I0J-400000D01*
G01*
X-22060000Y3010000D01*
G75*
G02*
X-22460000Y2610000I-400000J0D01*
G01*
G37*
X0Y11430000D03*
X-20320000Y3810000D03*
X-2540000Y11430000D03*
X-17780000Y3810000D03*
X-5080000Y11430000D03*
X-15240000Y3810000D03*
X-7620000Y11430000D03*
X-12700000Y3810000D03*
X-10160000Y11430000D03*
X-10160000Y3810000D03*
X-12700000Y11430000D03*
X-7620000Y3810000D03*
X-15240000Y11430000D03*
X-5080000Y3810000D03*
X-17780000Y11430000D03*
X-2540000Y3810000D03*
X-20320000Y11430000D03*
X0Y3810000D03*
X-22860000Y11430000D03*
%TD*%
D25*
%TO.C,U1*%
X24130000Y4445000D03*
X21590000Y4445000D03*
X22860000Y3175000D03*
%TD*%
D16*
%TO.C,R8*%
X6985000Y11430000D03*
D14*
X6985000Y3810000D03*
%TD*%
D16*
%TO.C,R7*%
X10160000Y11430000D03*
D14*
X10160000Y3810000D03*
%TD*%
D16*
%TO.C,R5*%
X3810000Y-1270000D03*
D14*
X3810000Y-8890000D03*
%TD*%
D16*
%TO.C,R4*%
X6985000Y-1270000D03*
D14*
X6985000Y-8890000D03*
%TD*%
%TO.C,R3*%
X-26670000Y-317500D03*
D16*
X-26670000Y-7937500D03*
%TD*%
D14*
%TO.C,R2*%
X-44450000Y-20320000D03*
D16*
X-44450000Y-12700000D03*
%TD*%
%TO.C,R1*%
X16510000Y-8890000D03*
D14*
X16510000Y-1270000D03*
%TD*%
D26*
%TO.C,J2*%
X-36195000Y7620000D03*
X-36195000Y5080000D03*
X-36195000Y2540000D03*
X-33655000Y7620000D03*
X-33655000Y5080000D03*
X-33655000Y2540000D03*
%TD*%
%TO.C,J1*%
G36*
G01*
X32245000Y-19070000D02*
X30495000Y-19070000D01*
G75*
G02*
X29620000Y-18195000I0J875000D01*
G01*
X29620000Y-16445000D01*
G75*
G02*
X30495000Y-15570000I875000J0D01*
G01*
X32245000Y-15570000D01*
G75*
G02*
X33120000Y-16445000I0J-875000D01*
G01*
X33120000Y-18195000D01*
G75*
G02*
X32245000Y-19070000I-875000J0D01*
G01*
G37*
G36*
G01*
X27670000Y-21820000D02*
X25670000Y-21820000D01*
G75*
G02*
X24920000Y-21070000I0J750000D01*
G01*
X24920000Y-19570000D01*
G75*
G02*
X25670000Y-18820000I750000J0D01*
G01*
X27670000Y-18820000D01*
G75*
G02*
X28420000Y-19570000I0J-750000D01*
G01*
X28420000Y-21070000D01*
G75*
G02*
X27670000Y-21820000I-750000J0D01*
G01*
G37*
G36*
G01*
X27545000Y-16070000D02*
X25795000Y-16070000D01*
G75*
G02*
X24920000Y-15195000I0J875000D01*
G01*
X24920000Y-13445000D01*
G75*
G02*
X25795000Y-12570000I875000J0D01*
G01*
X27545000Y-12570000D01*
G75*
G02*
X28420000Y-13445000I0J-875000D01*
G01*
X28420000Y-15195000D01*
G75*
G02*
X27545000Y-16070000I-875000J0D01*
G01*
G37*
%TD*%
D12*
%TO.C,D5*%
X6985000Y20320000D03*
G36*
G01*
X10425000Y20770000D02*
X10425000Y19870000D01*
G75*
G02*
X9975000Y19420000I-450000J0D01*
G01*
X9075000Y19420000D01*
G75*
G02*
X8625000Y19870000I0J450000D01*
G01*
X8625000Y20770000D01*
G75*
G02*
X9075000Y21220000I450000J0D01*
G01*
X9975000Y21220000D01*
G75*
G02*
X10425000Y20770000I0J-450000D01*
G01*
G37*
%TD*%
%TO.C,D4*%
X12065000Y20320000D03*
G36*
G01*
X15505000Y20770000D02*
X15505000Y19870000D01*
G75*
G02*
X15055000Y19420000I-450000J0D01*
G01*
X14155000Y19420000D01*
G75*
G02*
X13705000Y19870000I0J450000D01*
G01*
X13705000Y20770000D01*
G75*
G02*
X14155000Y21220000I450000J0D01*
G01*
X15055000Y21220000D01*
G75*
G02*
X15505000Y20770000I0J-450000D01*
G01*
G37*
%TD*%
%TO.C,D2*%
G36*
G01*
X-46590000Y-21120000D02*
X-47390000Y-21120000D01*
G75*
G02*
X-47790000Y-20720000I0J400000D01*
G01*
X-47790000Y-19920000D01*
G75*
G02*
X-47390000Y-19520000I400000J0D01*
G01*
X-46590000Y-19520000D01*
G75*
G02*
X-46190000Y-19920000I0J-400000D01*
G01*
X-46190000Y-20720000D01*
G75*
G02*
X-46590000Y-21120000I-400000J0D01*
G01*
G37*
D16*
X-46990000Y-12700000D03*
%TD*%
D14*
%TO.C,C6*%
X-20955000Y-1865000D03*
X-20955000Y635000D03*
%TD*%
%TO.C,C5*%
X-6985000Y635000D03*
X-6985000Y-1865000D03*
%TD*%
%TO.C,C4*%
X-25400000Y8930000D03*
X-25400000Y11430000D03*
%TD*%
%TO.C,C2*%
X19050000Y2580000D03*
X19050000Y5080000D03*
%TD*%
%TO.C,C1*%
X26670000Y5080000D03*
X26670000Y2580000D03*
%TD*%
M02*
