%TF.GenerationSoftware,KiCad,Pcbnew,(5.1.9)-1*%
%TF.CreationDate,2021-04-04T20:09:26-07:00*%
%TF.ProjectId,miditwiddle,6d696469-7477-4696-9464-6c652e6b6963,rev?*%
%TF.SameCoordinates,PX9157080PY60e4b00*%
%TF.FileFunction,Copper,L1,Top*%
%TF.FilePolarity,Positive*%
%FSLAX46Y46*%
G04 Gerber Fmt 4.6, Leading zero omitted, Abs format (unit mm)*
G04 Created by KiCad (PCBNEW (5.1.9)-1) date 2021-04-04 20:09:26*
%MOMM*%
%LPD*%
G01*
G04 APERTURE LIST*
%TA.AperFunction,ComponentPad*%
%ADD10C,1.860000*%
%TD*%
%TA.AperFunction,ComponentPad*%
%ADD11C,2.100000*%
%TD*%
%TA.AperFunction,ComponentPad*%
%ADD12C,1.800000*%
%TD*%
%TA.AperFunction,ComponentPad*%
%ADD13C,4.600001*%
%TD*%
%TA.AperFunction,ComponentPad*%
%ADD14C,1.600000*%
%TD*%
%TA.AperFunction,ComponentPad*%
%ADD15O,2.200000X2.200000*%
%TD*%
%TA.AperFunction,ComponentPad*%
%ADD16O,1.600000X1.600000*%
%TD*%
%TA.AperFunction,ComponentPad*%
%ADD17O,1.500000X2.500000*%
%TD*%
%TA.AperFunction,ComponentPad*%
%ADD18O,2.200000X3.500000*%
%TD*%
%TA.AperFunction,ComponentPad*%
%ADD19O,2.200000X3.500001*%
%TD*%
%TA.AperFunction,ComponentPad*%
%ADD20C,1.750000*%
%TD*%
%TA.AperFunction,ComponentPad*%
%ADD21O,1.700000X1.700000*%
%TD*%
%TA.AperFunction,ComponentPad*%
%ADD22C,1.500000*%
%TD*%
%TA.AperFunction,ComponentPad*%
%ADD23O,1.600000X2.400000*%
%TD*%
%TA.AperFunction,ComponentPad*%
%ADD24C,1.300000*%
%TD*%
%TA.AperFunction,ComponentPad*%
%ADD25C,1.700000*%
%TD*%
%TA.AperFunction,ViaPad*%
%ADD26C,0.600000*%
%TD*%
%TA.AperFunction,Conductor*%
%ADD27C,0.635000*%
%TD*%
%TA.AperFunction,Conductor*%
%ADD28C,0.254000*%
%TD*%
%TA.AperFunction,Conductor*%
%ADD29C,0.250000*%
%TD*%
G04 APERTURE END LIST*
D10*
%TO.P,J4,MH2*%
%TO.N,GND*%
X-3095000Y-23470000D03*
%TO.P,J4,MH1*%
X6905000Y-23470000D03*
D11*
%TO.P,J4,5*%
%TO.N,/Out-*%
X-3095000Y-11470000D03*
%TO.P,J4,4*%
%TO.N,/Out+*%
X6905000Y-11470000D03*
%TO.P,J4,3*%
%TO.N,Net-(J4-Pad3)*%
X-5595000Y-13970000D03*
%TO.P,J4,2*%
%TO.N,GND*%
X1905000Y-13970000D03*
%TO.P,J4,1*%
%TO.N,Net-(J4-Pad1)*%
X9405000Y-13970000D03*
%TD*%
D10*
%TO.P,J3,MH2*%
%TO.N,N/C*%
X-25955000Y-23470000D03*
%TO.P,J3,MH1*%
X-15955000Y-23470000D03*
D11*
%TO.P,J3,5*%
%TO.N,/In-*%
X-25955000Y-11470000D03*
%TO.P,J3,4*%
%TO.N,/In+*%
X-15955000Y-11470000D03*
%TO.P,J3,3*%
%TO.N,Net-(J3-Pad3)*%
X-28455000Y-13970000D03*
%TO.P,J3,2*%
%TO.N,Net-(J3-Pad2)*%
X-20955000Y-13970000D03*
%TO.P,J3,1*%
%TO.N,Net-(J3-Pad1)*%
X-13455000Y-13970000D03*
%TD*%
D12*
%TO.P,SW5,S2*%
%TO.N,GND*%
X-6310000Y18137500D03*
%TO.P,SW5,S1*%
%TO.N,Enc_SW*%
X-1310000Y18137500D03*
D13*
%TO.P,SW5,*%
%TO.N,GND*%
X2490000Y17137500D03*
X-10110000Y17137500D03*
D12*
%TO.P,SW5,A*%
%TO.N,Enc_A*%
X-1310000Y20637500D03*
%TO.P,SW5,C*%
%TO.N,GND*%
X-3810000Y20637500D03*
%TO.P,SW5,B*%
%TO.N,Enc_B*%
X-6310000Y20637500D03*
%TD*%
D14*
%TO.P,C8,2*%
%TO.N,GND*%
X-4445000Y-1865000D03*
%TO.P,C8,1*%
%TO.N,Enc_B*%
X-4445000Y635000D03*
%TD*%
%TO.P,C7,2*%
%TO.N,GND*%
X-1905000Y-1865000D03*
%TO.P,C7,1*%
%TO.N,Enc_A*%
X-1905000Y635000D03*
%TD*%
%TO.P,C3,1*%
%TO.N,+5V*%
%TA.AperFunction,ComponentPad*%
G36*
G01*
X21050000Y-1670000D02*
X21050000Y-870000D01*
G75*
G02*
X21450000Y-470000I400000J0D01*
G01*
X22250000Y-470000D01*
G75*
G02*
X22650000Y-870000I0J-400000D01*
G01*
X22650000Y-1670000D01*
G75*
G02*
X22250000Y-2070000I-400000J0D01*
G01*
X21450000Y-2070000D01*
G75*
G02*
X21050000Y-1670000I0J400000D01*
G01*
G37*
%TD.AperFunction*%
%TO.P,C3,2*%
%TO.N,GND*%
X23850000Y-1270000D03*
%TD*%
D15*
%TO.P,D1,2*%
%TO.N,/Raw'*%
X30480000Y8890000D03*
%TO.P,D1,1*%
%TO.N,/Raw''*%
%TA.AperFunction,ComponentPad*%
G36*
G01*
X31030000Y-2370000D02*
X29930000Y-2370000D01*
G75*
G02*
X29380000Y-1820000I0J550000D01*
G01*
X29380000Y-720000D01*
G75*
G02*
X29930000Y-170000I550000J0D01*
G01*
X31030000Y-170000D01*
G75*
G02*
X31580000Y-720000I0J-550000D01*
G01*
X31580000Y-1820000D01*
G75*
G02*
X31030000Y-2370000I-550000J0D01*
G01*
G37*
%TD.AperFunction*%
%TD*%
D16*
%TO.P,R6,2*%
%TO.N,/LEDP*%
X13335000Y11430000D03*
D14*
%TO.P,R6,1*%
%TO.N,+5V*%
X13335000Y3810000D03*
%TD*%
D17*
%TO.P,SW1,1*%
%TO.N,Net-(SW1-Pad1)*%
X28670000Y23495000D03*
%TO.P,SW1,2*%
%TO.N,/Raw*%
X26670000Y23495000D03*
%TO.P,SW1,3*%
%TO.N,/Raw'*%
X24670000Y23495000D03*
D18*
%TO.P,SW1,*%
%TO.N,*%
X30770000Y23495000D03*
X22570000Y23495000D03*
%TD*%
D17*
%TO.P,SW3,1*%
%TO.N,Switch*%
X-15145000Y23495000D03*
%TO.P,SW3,2*%
%TO.N,GND*%
X-17145000Y23495000D03*
%TO.P,SW3,3*%
%TO.N,Net-(SW3-Pad3)*%
X-19145000Y23495000D03*
D19*
%TO.P,SW3,*%
%TO.N,GND*%
X-13045000Y23495000D03*
X-21245000Y23495000D03*
%TD*%
D11*
%TO.P,SW2,*%
%TO.N,GND*%
X13635000Y-17195000D03*
D20*
%TO.P,SW2,2*%
X14895000Y-19685000D03*
%TO.P,SW2,1*%
%TO.N,~Reset*%
X19395000Y-19685000D03*
D11*
%TO.P,SW2,*%
%TO.N,GND*%
X20645000Y-17195000D03*
%TD*%
D21*
%TO.P,JP1,4*%
%TO.N,/Raw*%
X33655000Y-5715000D03*
%TO.P,JP1,3*%
%TO.N,/J1Brl*%
X33655000Y-8255000D03*
%TO.P,JP1,2*%
%TO.N,/J1Pin*%
X31115000Y-5715000D03*
%TO.P,JP1,1*%
%TO.N,GND*%
X31115000Y-8255000D03*
%TD*%
D22*
%TO.P,Y1,2*%
%TO.N,/X1*%
X-11530000Y-635000D03*
%TO.P,Y1,1*%
%TO.N,/X2*%
X-16410000Y-635000D03*
%TD*%
D11*
%TO.P,SW4,*%
%TO.N,GND*%
X-23795000Y17830000D03*
D20*
%TO.P,SW4,2*%
X-25055000Y20320000D03*
%TO.P,SW4,1*%
%TO.N,Button*%
X-29555000Y20320000D03*
D11*
%TO.P,SW4,*%
%TO.N,GND*%
X-30805000Y17830000D03*
%TD*%
D12*
%TO.P,D3,2*%
%TO.N,/LEDP*%
X17145000Y20320000D03*
%TO.P,D3,1*%
%TO.N,GND*%
%TA.AperFunction,ComponentPad*%
G36*
G01*
X20585000Y20770000D02*
X20585000Y19870000D01*
G75*
G02*
X20135000Y19420000I-450000J0D01*
G01*
X19235000Y19420000D01*
G75*
G02*
X18785000Y19870000I0J450000D01*
G01*
X18785000Y20770000D01*
G75*
G02*
X19235000Y21220000I450000J0D01*
G01*
X20135000Y21220000D01*
G75*
G02*
X20585000Y20770000I0J-450000D01*
G01*
G37*
%TD.AperFunction*%
%TD*%
D23*
%TO.P,U3,8*%
%TO.N,+5V*%
X-41275000Y-6985000D03*
%TO.P,U3,4*%
%TO.N,Net-(U3-Pad4)*%
X-33655000Y-14605000D03*
%TO.P,U3,7*%
%TO.N,Net-(U3-Pad7)*%
X-38735000Y-6985000D03*
%TO.P,U3,3*%
%TO.N,/In-*%
X-36195000Y-14605000D03*
%TO.P,U3,6*%
%TO.N,RX*%
X-36195000Y-6985000D03*
%TO.P,U3,2*%
%TO.N,/In+'*%
X-38735000Y-14605000D03*
%TO.P,U3,5*%
%TO.N,GND*%
X-33655000Y-6985000D03*
%TO.P,U3,1*%
%TO.N,Net-(U3-Pad1)*%
%TA.AperFunction,ComponentPad*%
G36*
G01*
X-40875000Y-15805000D02*
X-41675000Y-15805000D01*
G75*
G02*
X-42075000Y-15405000I0J400000D01*
G01*
X-42075000Y-13805000D01*
G75*
G02*
X-41675000Y-13405000I400000J0D01*
G01*
X-40875000Y-13405000D01*
G75*
G02*
X-40475000Y-13805000I0J-400000D01*
G01*
X-40475000Y-15405000D01*
G75*
G02*
X-40875000Y-15805000I-400000J0D01*
G01*
G37*
%TD.AperFunction*%
%TD*%
%TO.P,U2,1*%
%TO.N,~Reset*%
%TA.AperFunction,ComponentPad*%
G36*
G01*
X-22460000Y2610000D02*
X-23260000Y2610000D01*
G75*
G02*
X-23660000Y3010000I0J400000D01*
G01*
X-23660000Y4610000D01*
G75*
G02*
X-23260000Y5010000I400000J0D01*
G01*
X-22460000Y5010000D01*
G75*
G02*
X-22060000Y4610000I0J-400000D01*
G01*
X-22060000Y3010000D01*
G75*
G02*
X-22460000Y2610000I-400000J0D01*
G01*
G37*
%TD.AperFunction*%
%TO.P,U2,11*%
%TO.N,Net-(U2-Pad11)*%
X0Y11430000D03*
%TO.P,U2,2*%
%TO.N,RX*%
X-20320000Y3810000D03*
%TO.P,U2,12*%
%TO.N,Button*%
X-2540000Y11430000D03*
%TO.P,U2,3*%
%TO.N,TX*%
X-17780000Y3810000D03*
%TO.P,U2,13*%
%TO.N,Switch*%
X-5080000Y11430000D03*
%TO.P,U2,4*%
%TO.N,/X2*%
X-15240000Y3810000D03*
%TO.P,U2,14*%
%TO.N,LED1*%
X-7620000Y11430000D03*
%TO.P,U2,5*%
%TO.N,/X1*%
X-12700000Y3810000D03*
%TO.P,U2,15*%
%TO.N,LED2*%
X-10160000Y11430000D03*
%TO.P,U2,6*%
%TO.N,Enc_B*%
X-10160000Y3810000D03*
%TO.P,U2,16*%
%TO.N,Net-(U2-Pad16)*%
X-12700000Y11430000D03*
%TO.P,U2,7*%
%TO.N,Enc_A*%
X-7620000Y3810000D03*
%TO.P,U2,17*%
%TO.N,/MOSI*%
X-15240000Y11430000D03*
%TO.P,U2,8*%
%TO.N,Enc_SW*%
X-5080000Y3810000D03*
%TO.P,U2,18*%
%TO.N,/MISO*%
X-17780000Y11430000D03*
%TO.P,U2,9*%
%TO.N,Net-(U2-Pad9)*%
X-2540000Y3810000D03*
%TO.P,U2,19*%
%TO.N,/SCK*%
X-20320000Y11430000D03*
%TO.P,U2,10*%
%TO.N,GND*%
X0Y3810000D03*
%TO.P,U2,20*%
%TO.N,+5V*%
X-22860000Y11430000D03*
%TD*%
D24*
%TO.P,U1,1*%
%TO.N,GND*%
X24130000Y4445000D03*
%TO.P,U1,3*%
%TO.N,+5V*%
X21590000Y4445000D03*
%TO.P,U1,2*%
%TO.N,/Raw''*%
X22860000Y3175000D03*
%TD*%
D16*
%TO.P,R8,2*%
%TO.N,/LED2'*%
X6985000Y11430000D03*
D14*
%TO.P,R8,1*%
%TO.N,LED2*%
X6985000Y3810000D03*
%TD*%
D16*
%TO.P,R7,2*%
%TO.N,/LED1'*%
X10160000Y11430000D03*
D14*
%TO.P,R7,1*%
%TO.N,LED1*%
X10160000Y3810000D03*
%TD*%
D16*
%TO.P,R5,2*%
%TO.N,TX*%
X3810000Y-1270000D03*
D14*
%TO.P,R5,1*%
%TO.N,/Out-*%
X3810000Y-8890000D03*
%TD*%
D16*
%TO.P,R4,2*%
%TO.N,+5V*%
X6985000Y-1270000D03*
D14*
%TO.P,R4,1*%
%TO.N,/Out+*%
X6985000Y-8890000D03*
%TD*%
%TO.P,R3,1*%
%TO.N,+5V*%
X-26670000Y-317500D03*
D16*
%TO.P,R3,2*%
%TO.N,RX*%
X-26670000Y-7937500D03*
%TD*%
D14*
%TO.P,R2,1*%
%TO.N,/In+'*%
X-44450000Y-20320000D03*
D16*
%TO.P,R2,2*%
%TO.N,/In+*%
X-44450000Y-12700000D03*
%TD*%
%TO.P,R1,2*%
%TO.N,~Reset*%
X16510000Y-8890000D03*
D14*
%TO.P,R1,1*%
%TO.N,+5V*%
X16510000Y-1270000D03*
%TD*%
D25*
%TO.P,J2,6*%
%TO.N,GND*%
X-36195000Y7620000D03*
%TO.P,J2,4*%
%TO.N,/MOSI*%
X-36195000Y5080000D03*
%TO.P,J2,2*%
%TO.N,+5V*%
X-36195000Y2540000D03*
%TO.P,J2,5*%
%TO.N,~Reset*%
X-33655000Y7620000D03*
%TO.P,J2,3*%
%TO.N,/SCK*%
X-33655000Y5080000D03*
%TO.P,J2,1*%
%TO.N,/MISO*%
X-33655000Y2540000D03*
%TD*%
%TO.P,J1,3*%
%TO.N,/J1Brl*%
%TA.AperFunction,ComponentPad*%
G36*
G01*
X32245000Y-19070000D02*
X30495000Y-19070000D01*
G75*
G02*
X29620000Y-18195000I0J875000D01*
G01*
X29620000Y-16445000D01*
G75*
G02*
X30495000Y-15570000I875000J0D01*
G01*
X32245000Y-15570000D01*
G75*
G02*
X33120000Y-16445000I0J-875000D01*
G01*
X33120000Y-18195000D01*
G75*
G02*
X32245000Y-19070000I-875000J0D01*
G01*
G37*
%TD.AperFunction*%
%TO.P,J1,2*%
%TA.AperFunction,ComponentPad*%
G36*
G01*
X27670000Y-21820000D02*
X25670000Y-21820000D01*
G75*
G02*
X24920000Y-21070000I0J750000D01*
G01*
X24920000Y-19570000D01*
G75*
G02*
X25670000Y-18820000I750000J0D01*
G01*
X27670000Y-18820000D01*
G75*
G02*
X28420000Y-19570000I0J-750000D01*
G01*
X28420000Y-21070000D01*
G75*
G02*
X27670000Y-21820000I-750000J0D01*
G01*
G37*
%TD.AperFunction*%
%TO.P,J1,1*%
%TO.N,/J1Pin*%
%TA.AperFunction,ComponentPad*%
G36*
G01*
X27545000Y-16070000D02*
X25795000Y-16070000D01*
G75*
G02*
X24920000Y-15195000I0J875000D01*
G01*
X24920000Y-13445000D01*
G75*
G02*
X25795000Y-12570000I875000J0D01*
G01*
X27545000Y-12570000D01*
G75*
G02*
X28420000Y-13445000I0J-875000D01*
G01*
X28420000Y-15195000D01*
G75*
G02*
X27545000Y-16070000I-875000J0D01*
G01*
G37*
%TD.AperFunction*%
%TD*%
D12*
%TO.P,D5,2*%
%TO.N,/LED2'*%
X6985000Y20320000D03*
%TO.P,D5,1*%
%TO.N,GND*%
%TA.AperFunction,ComponentPad*%
G36*
G01*
X10425000Y20770000D02*
X10425000Y19870000D01*
G75*
G02*
X9975000Y19420000I-450000J0D01*
G01*
X9075000Y19420000D01*
G75*
G02*
X8625000Y19870000I0J450000D01*
G01*
X8625000Y20770000D01*
G75*
G02*
X9075000Y21220000I450000J0D01*
G01*
X9975000Y21220000D01*
G75*
G02*
X10425000Y20770000I0J-450000D01*
G01*
G37*
%TD.AperFunction*%
%TD*%
%TO.P,D4,2*%
%TO.N,/LED1'*%
X12065000Y20320000D03*
%TO.P,D4,1*%
%TO.N,GND*%
%TA.AperFunction,ComponentPad*%
G36*
G01*
X15505000Y20770000D02*
X15505000Y19870000D01*
G75*
G02*
X15055000Y19420000I-450000J0D01*
G01*
X14155000Y19420000D01*
G75*
G02*
X13705000Y19870000I0J450000D01*
G01*
X13705000Y20770000D01*
G75*
G02*
X14155000Y21220000I450000J0D01*
G01*
X15055000Y21220000D01*
G75*
G02*
X15505000Y20770000I0J-450000D01*
G01*
G37*
%TD.AperFunction*%
%TD*%
%TO.P,D2,1*%
%TO.N,/In+'*%
%TA.AperFunction,ComponentPad*%
G36*
G01*
X-46590000Y-21120000D02*
X-47390000Y-21120000D01*
G75*
G02*
X-47790000Y-20720000I0J400000D01*
G01*
X-47790000Y-19920000D01*
G75*
G02*
X-47390000Y-19520000I400000J0D01*
G01*
X-46590000Y-19520000D01*
G75*
G02*
X-46190000Y-19920000I0J-400000D01*
G01*
X-46190000Y-20720000D01*
G75*
G02*
X-46590000Y-21120000I-400000J0D01*
G01*
G37*
%TD.AperFunction*%
D16*
%TO.P,D2,2*%
%TO.N,/In-*%
X-46990000Y-12700000D03*
%TD*%
D14*
%TO.P,C6,1*%
%TO.N,/X2*%
X-20955000Y-1865000D03*
%TO.P,C6,2*%
%TO.N,GND*%
X-20955000Y635000D03*
%TD*%
%TO.P,C5,2*%
%TO.N,GND*%
X-6985000Y635000D03*
%TO.P,C5,1*%
%TO.N,/X1*%
X-6985000Y-1865000D03*
%TD*%
%TO.P,C4,2*%
%TO.N,GND*%
X-25400000Y8930000D03*
%TO.P,C4,1*%
%TO.N,+5V*%
X-25400000Y11430000D03*
%TD*%
%TO.P,C2,2*%
%TO.N,GND*%
X19050000Y2580000D03*
%TO.P,C2,1*%
%TO.N,+5V*%
X19050000Y5080000D03*
%TD*%
%TO.P,C1,2*%
%TO.N,GND*%
X26670000Y5080000D03*
%TO.P,C1,1*%
%TO.N,/Raw''*%
X26670000Y2580000D03*
%TD*%
D26*
%TO.N,RX*%
X-26670000Y-2540000D03*
%TO.N,~Reset*%
X9842502Y-2222500D03*
%TO.N,Enc_A*%
X-3810000Y15240000D03*
%TO.N,Enc_B*%
X-8890000Y13652500D03*
%TO.N,Enc_SW*%
X-1270000Y15240000D03*
%TD*%
D27*
%TO.N,+5V*%
X20955000Y5080000D02*
X21590000Y4445000D01*
X19050000Y5080000D02*
X20955000Y5080000D01*
X-22860000Y11430000D02*
X-25400000Y11430000D01*
X21590000Y-1010000D02*
X21850000Y-1270000D01*
X21590000Y4445000D02*
X21590000Y-1010000D01*
X-38735000Y5080000D02*
X-36195000Y2540000D01*
X-38735000Y8572500D02*
X-38735000Y5080000D01*
X-35877500Y11430000D02*
X-38735000Y8572500D01*
X-25400000Y11430000D02*
X-35877500Y11430000D01*
X19310000Y-3810000D02*
X21850000Y-1270000D01*
D28*
X6985000Y-1270000D02*
X6985000Y-3810000D01*
X14605000Y5080000D02*
X13335000Y3810000D01*
X19050000Y5080000D02*
X14605000Y5080000D01*
D27*
X-38100000Y-1905000D02*
X-38100000Y-3810000D01*
X-36195000Y0D02*
X-38100000Y-1905000D01*
X-36195000Y2540000D02*
X-36195000Y0D01*
X-41275000Y-6985000D02*
X-38100000Y-3810000D01*
D28*
X-27940000Y-1587500D02*
X-27940000Y-3810000D01*
X-26670000Y-317500D02*
X-27940000Y-1587500D01*
D27*
X-27940000Y-3810000D02*
X6985000Y-3810000D01*
X-38100000Y-3810000D02*
X-27940000Y-3810000D01*
D28*
X16510000Y-1270000D02*
X16510000Y-3810000D01*
D27*
X16510000Y-3810000D02*
X19310000Y-3810000D01*
X6985000Y-3810000D02*
X16510000Y-3810000D01*
D28*
%TO.N,/MOSI*%
X-17145000Y13335000D02*
X-15240000Y11430000D01*
X-21590000Y12700000D02*
X-20955000Y13335000D01*
X-21590000Y10160000D02*
X-21590000Y12700000D01*
X-31115000Y7302500D02*
X-24447500Y7302500D01*
X-33020000Y9207500D02*
X-31115000Y7302500D01*
X-36830000Y9207500D02*
X-33020000Y9207500D01*
X-37782500Y8255000D02*
X-36830000Y9207500D01*
X-37782500Y6667500D02*
X-37782500Y8255000D01*
X-20955000Y13335000D02*
X-17145000Y13335000D01*
X-24447500Y7302500D02*
X-21590000Y10160000D01*
X-36195000Y5080000D02*
X-37782500Y6667500D01*
%TO.N,/SCK*%
X-25400000Y5080000D02*
X-33655000Y5080000D01*
X-20320000Y10160000D02*
X-25400000Y5080000D01*
X-20320000Y11430000D02*
X-20320000Y10160000D01*
%TO.N,/MISO*%
X-26670000Y2540000D02*
X-33655000Y2540000D01*
X-17780000Y11430000D02*
X-26670000Y2540000D01*
%TO.N,RX*%
X-29527500Y-5080000D02*
X-26670000Y-7937500D01*
X-34290000Y-5080000D02*
X-29527500Y-5080000D01*
X-36195000Y-6985000D02*
X-34290000Y-5080000D01*
X-20320000Y3810000D02*
X-26035000Y-1905000D01*
X-26035000Y-1905000D02*
X-26670000Y-2540000D01*
%TO.N,TX*%
X3810000Y2540000D02*
X3810000Y-1270000D01*
X-317500Y6667500D02*
X3810000Y2540000D01*
X-14922500Y6667500D02*
X-317500Y6667500D01*
X-17780000Y3810000D02*
X-14922500Y6667500D01*
%TO.N,LED2*%
X6985000Y6985000D02*
X6985000Y3810000D01*
X-317500Y14287500D02*
X6985000Y6985000D01*
X-7302500Y14287500D02*
X-317500Y14287500D01*
X-10160000Y11430000D02*
X-7302500Y14287500D01*
%TO.N,LED1*%
X8890000Y2540000D02*
X10160000Y3810000D01*
X6350000Y2540000D02*
X8890000Y2540000D01*
X-1270000Y10160000D02*
X6350000Y2540000D01*
X-1270000Y12700000D02*
X-1270000Y10160000D01*
X-1905000Y13335000D02*
X-1270000Y12700000D01*
X-5715000Y13335000D02*
X-1905000Y13335000D01*
X-7620000Y11430000D02*
X-5715000Y13335000D01*
D29*
%TO.N,/X1*%
X-12700000Y535000D02*
X-11530000Y-635000D01*
X-12700000Y3810000D02*
X-12700000Y535000D01*
X-10300000Y-1865000D02*
X-11530000Y-635000D01*
X-6985000Y-1865000D02*
X-10300000Y-1865000D01*
%TO.N,/X2*%
X-15240000Y3810000D02*
X-15240000Y535000D01*
X-15240000Y535000D02*
X-16410000Y-635000D01*
X-17640000Y-1865000D02*
X-16410000Y-635000D01*
X-20955000Y-1865000D02*
X-17640000Y-1865000D01*
D27*
%TO.N,/J1Pin*%
X26670000Y-10160000D02*
X26670000Y-14320000D01*
X31115000Y-5715000D02*
X26670000Y-10160000D01*
%TO.N,/J1Brl*%
X28370000Y-20320000D02*
X31370000Y-17320000D01*
X26670000Y-20320000D02*
X28370000Y-20320000D01*
X33655000Y-15035000D02*
X31370000Y-17320000D01*
X33655000Y-8255000D02*
X33655000Y-15035000D01*
D28*
%TO.N,/LEDP*%
X13335000Y16510000D02*
X17145000Y20320000D01*
X13335000Y11430000D02*
X13335000Y16510000D01*
%TO.N,/LED1'*%
X10160000Y18415000D02*
X12065000Y20320000D01*
X10160000Y11430000D02*
X10160000Y18415000D01*
%TO.N,/LED2'*%
X6985000Y11430000D02*
X6985000Y20320000D01*
D27*
%TO.N,/Raw''*%
X23455000Y2580000D02*
X22860000Y3175000D01*
X26670000Y2580000D02*
X23455000Y2580000D01*
X30480000Y-1230000D02*
X26670000Y2580000D01*
X30480000Y-1270000D02*
X30480000Y-1230000D01*
%TO.N,/Raw'*%
X24670000Y14700000D02*
X30480000Y8890000D01*
X24670000Y23495000D02*
X24670000Y14700000D01*
D28*
%TO.N,/In-*%
X-46990000Y-12700000D02*
X-45760000Y-11470000D01*
X-36195000Y-11510000D02*
X-36155000Y-11470000D01*
X-36195000Y-14605000D02*
X-36195000Y-11510000D01*
X-36155000Y-11470000D02*
X-25955000Y-11470000D01*
X-45760000Y-11470000D02*
X-36155000Y-11470000D01*
%TO.N,/In+'*%
X-44450000Y-20320000D02*
X-46990000Y-20320000D01*
X-44450000Y-20320000D02*
X-38735000Y-14605000D01*
%TO.N,~Reset*%
X-25717500Y952500D02*
X-22860000Y3810000D01*
X-34290000Y952500D02*
X-25717500Y952500D01*
X-34925000Y1587500D02*
X-34290000Y952500D01*
X-34925000Y6350000D02*
X-34925000Y1587500D01*
X-33655000Y7620000D02*
X-34925000Y6350000D01*
X16510000Y-16800000D02*
X19395000Y-19685000D01*
X16510000Y-8890000D02*
X16510000Y-16800000D01*
X2Y7620000D02*
X9842502Y-2222500D01*
X-19050000Y7620000D02*
X2Y7620000D01*
X-22860000Y3810000D02*
X-19050000Y7620000D01*
%TO.N,/In+*%
X-20995000Y-16510000D02*
X-15955000Y-11470000D01*
X-37465000Y-15557500D02*
X-36512500Y-16510000D01*
X-36512500Y-16510000D02*
X-20995000Y-16510000D01*
X-37465000Y-13652500D02*
X-37465000Y-15557500D01*
X-38417500Y-12700000D02*
X-37465000Y-13652500D01*
X-44450000Y-12700000D02*
X-38417500Y-12700000D01*
%TO.N,/Out-*%
X-515000Y-8890000D02*
X-3095000Y-11470000D01*
X3810000Y-8890000D02*
X-515000Y-8890000D01*
%TO.N,/Out+*%
X6985000Y-11390000D02*
X6905000Y-11470000D01*
X6985000Y-8890000D02*
X6985000Y-11390000D01*
D27*
%TO.N,/Raw*%
X26670000Y19050000D02*
X26670000Y23495000D01*
X33655000Y12065000D02*
X26670000Y19050000D01*
X33655000Y-5715000D02*
X33655000Y12065000D01*
D28*
%TO.N,Switch*%
X-15145000Y17240000D02*
X-15145000Y23495000D01*
X-15145000Y16415000D02*
X-15145000Y17240000D01*
X-11430000Y12700000D02*
X-15145000Y16415000D01*
X-11430000Y10160000D02*
X-11430000Y12700000D01*
X-10795000Y9525000D02*
X-11430000Y10160000D01*
X-6985000Y9525000D02*
X-10795000Y9525000D01*
X-5080000Y11430000D02*
X-6985000Y9525000D01*
%TO.N,Button*%
X-15557500Y14287500D02*
X-23522500Y14287500D01*
X-13970000Y10160000D02*
X-13970000Y12700000D01*
X-12382500Y8572500D02*
X-13970000Y10160000D01*
X-5397500Y8572500D02*
X-12382500Y8572500D01*
X-23522500Y14287500D02*
X-29555000Y20320000D01*
X-13970000Y12700000D02*
X-15557500Y14287500D01*
X-2540000Y11430000D02*
X-5397500Y8572500D01*
%TO.N,Enc_A*%
X-3810000Y2540000D02*
X-1905000Y635000D01*
X-3810000Y5080000D02*
X-3810000Y2540000D01*
X-4445000Y5715000D02*
X-3810000Y5080000D01*
X-5715000Y5715000D02*
X-4445000Y5715000D01*
X-7620000Y3810000D02*
X-5715000Y5715000D01*
X-3810000Y18137500D02*
X-1310000Y20637500D01*
X-3810000Y15240000D02*
X-3810000Y18137500D01*
%TO.N,Enc_B*%
X-10160000Y3810000D02*
X-8255000Y1905000D01*
X-5715000Y1905000D02*
X-4445000Y635000D01*
X-8255000Y1905000D02*
X-5715000Y1905000D01*
X-4953000Y17589500D02*
X-8890000Y13652500D01*
X-4953000Y19280500D02*
X-4953000Y17589500D01*
X-6310000Y20637500D02*
X-4953000Y19280500D01*
%TO.N,Enc_SW*%
X-1270000Y15240000D02*
X-1270000Y18097500D01*
X-1270000Y18097500D02*
X-1310000Y18137500D01*
%TD*%
M02*
