M48
; DRILL file {KiCad (5.1.9)-1} date 04/04/21 20:09:28
; FORMAT={-:-/ absolute / inch / decimal}
; #@! TF.CreationDate,2021-04-04T20:09:28-07:00
; #@! TF.GenerationSoftware,Kicad,Pcbnew,(5.1.9)-1
; #@! TF.FileFunction,Plated,1,2,PTH
FMAT,2
INCH
T1C0.0157
T2C0.0295
T3C0.0315
T4C0.0354
T5C0.0390
T6C0.0394
T7C0.0433
T8C0.0488
T9C0.0512
T10C0.0551
T11C0.0591
T12C0.0906
%
G90
G05
T1
X-1.05Y-0.1
X-0.35Y0.5375
X-0.15Y0.6
X-0.05Y0.6
X0.3875Y-0.0875
T2
X0.85Y0.175
X0.9Y0.125
X0.95Y0.175
T3
X-1.85Y-0.5
X-1.85Y-0.8
X-1.75Y-0.5
X-1.75Y-0.8
X-1.625Y-0.275
X-1.625Y-0.575
X-1.525Y-0.275
X-1.525Y-0.575
X-1.425Y-0.275
X-1.425Y-0.575
X-1.325Y-0.275
X-1.325Y-0.575
X-1.05Y-0.0125
X-1.05Y-0.3125
X-1.0Y0.45
X-1.0Y0.3516
X-0.9Y0.45
X-0.9Y0.15
X-0.825Y0.025
X-0.825Y-0.0734
X-0.8Y0.45
X-0.8Y0.15
X-0.7Y0.45
X-0.7Y0.15
X-0.6461Y-0.025
X-0.6Y0.45
X-0.6Y0.15
X-0.5Y0.45
X-0.5Y0.15
X-0.4539Y-0.025
X-0.4Y0.45
X-0.4Y0.15
X-0.3Y0.45
X-0.3Y0.15
X-0.275Y0.025
X-0.275Y-0.0734
X-0.2Y0.45
X-0.2Y0.15
X-0.175Y0.025
X-0.175Y-0.0734
X-0.1Y0.45
X-0.1Y0.15
X-0.075Y0.025
X-0.075Y-0.0734
X0.0Y0.45
X0.0Y0.15
X0.15Y-0.05
X0.15Y-0.35
X0.275Y0.45
X0.275Y0.15
X0.275Y-0.05
X0.275Y-0.35
X0.4Y0.45
X0.4Y0.15
X0.525Y0.45
X0.525Y0.15
X0.65Y-0.05
X0.65Y-0.35
X0.75Y0.2
X0.75Y0.1016
X0.8602Y-0.05
X0.939Y-0.05
X1.05Y0.2
X1.05Y0.1016
T4
X-0.7537Y0.925
X-0.675Y0.925
X-0.5963Y0.925
X0.275Y0.8
X0.375Y0.8
X0.475Y0.8
X0.575Y0.8
X0.675Y0.8
X0.775Y0.8
X0.9713Y0.925
X1.05Y0.925
X1.1287Y0.925
T5
X-1.1636Y0.8
X-0.9864Y0.8
X0.5864Y-0.775
X0.7636Y-0.775
T6
X-1.425Y0.3
X-1.425Y0.2
X-1.425Y0.1
X-1.325Y0.3
X-1.325Y0.2
X-1.325Y0.1
X-0.2484Y0.8125
X-0.2484Y0.7141
X-0.15Y0.8125
X-0.0516Y0.8125
X-0.0516Y0.7141
X1.225Y-0.225
X1.225Y-0.325
X1.325Y-0.225
X1.325Y-0.325
T7
X1.2Y0.35
X1.2Y-0.05
T8
X-1.0219Y-0.924
X-0.6281Y-0.924
X-0.1219Y-0.924
X0.2719Y-0.924
T9
X-1.2128Y0.702
X-0.9368Y0.702
X0.5368Y-0.677
X0.8128Y-0.677
T10
X-1.1203Y-0.55
X-1.0219Y-0.4516
X-0.825Y-0.55
X-0.6281Y-0.4516
X-0.5297Y-0.55
X-0.2203Y-0.55
X-0.1219Y-0.4516
X0.075Y-0.55
X0.2719Y-0.4516
X0.3703Y-0.55
T11
X-0.8364Y0.925
X-0.5136Y0.925
X0.8886Y0.925
X1.2114Y0.925
T12
X-0.398Y0.6747
X0.098Y0.6747
T6
G00X1.0106Y-0.5638
M15
G01X1.0894Y-0.5638
M16
G05
G00X1.0106Y-0.8
M15
G01X1.0894Y-0.8
M16
G05
G00X1.235Y-0.7213
M15
G01X1.235Y-0.6425
M16
G05
T0
M30
