%TF.GenerationSoftware,KiCad,Pcbnew,(5.1.9)-1*%
%TF.CreationDate,2021-03-13T23:47:23-08:00*%
%TF.ProjectId,miditwiddle-back,6d696469-7477-4696-9464-6c652d626163,rev?*%
%TF.SameCoordinates,PX9157080PY68799b0*%
%TF.FileFunction,Copper,L2,Bot*%
%TF.FilePolarity,Positive*%
%FSLAX46Y46*%
G04 Gerber Fmt 4.6, Leading zero omitted, Abs format (unit mm)*
G04 Created by KiCad (PCBNEW (5.1.9)-1) date 2021-03-13 23:47:23*
%MOMM*%
%LPD*%
G01*
G04 APERTURE LIST*
%TA.AperFunction,SMDPad,CuDef*%
%ADD10R,1.500000X1.500000*%
%TD*%
%TA.AperFunction,ViaPad*%
%ADD11C,0.600000*%
%TD*%
%TA.AperFunction,Conductor*%
%ADD12C,0.254000*%
%TD*%
%TA.AperFunction,Conductor*%
%ADD13C,0.100000*%
%TD*%
G04 APERTURE END LIST*
D10*
%TO.P,TP1,1*%
%TO.N,GND*%
X-38100000Y7950000D03*
%TD*%
D11*
%TO.N,GND*%
X-48000000Y21950000D03*
X-48000000Y-6050000D03*
X48000000Y-6050000D03*
X48000000Y21950000D03*
%TD*%
D12*
%TO.N,GND*%
X48105082Y22480706D02*
X48206163Y22450188D01*
X48299390Y22400618D01*
X48381214Y22333884D01*
X48448518Y22252528D01*
X48498737Y22159650D01*
X48529960Y22058784D01*
X48543200Y21932816D01*
X48543201Y-6027647D01*
X48530706Y-6155081D01*
X48500188Y-6256161D01*
X48450618Y-6349391D01*
X48383884Y-6431214D01*
X48302529Y-6498517D01*
X48209649Y-6548737D01*
X48108784Y-6579960D01*
X47982816Y-6593200D01*
X-47977657Y-6593200D01*
X-48105081Y-6580706D01*
X-48206161Y-6550188D01*
X-48299391Y-6500618D01*
X-48381214Y-6433884D01*
X-48448517Y-6352529D01*
X-48498737Y-6259649D01*
X-48529960Y-6158784D01*
X-48543200Y-6032816D01*
X-48543200Y77563D01*
X21613200Y77563D01*
X21615093Y58344D01*
X21615085Y57205D01*
X21615707Y50857D01*
X21617671Y32174D01*
X21619810Y10453D01*
X21620745Y7372D01*
X21628115Y-28531D01*
X21635870Y-69187D01*
X21637713Y-75293D01*
X21649255Y-112580D01*
X21665298Y-150744D01*
X21680808Y-189133D01*
X21683802Y-194764D01*
X21702367Y-229101D01*
X21725513Y-263417D01*
X21748195Y-298077D01*
X21752226Y-303020D01*
X21777107Y-333095D01*
X21806496Y-362278D01*
X21835451Y-391845D01*
X21840365Y-395911D01*
X21870614Y-420581D01*
X21905093Y-443488D01*
X21939256Y-466880D01*
X21944866Y-469914D01*
X21979330Y-488239D01*
X22017620Y-504021D01*
X22055661Y-520325D01*
X22061754Y-522212D01*
X22099121Y-533494D01*
X22139713Y-541531D01*
X22180234Y-550144D01*
X22180336Y-550155D01*
X22180452Y-550190D01*
X22183917Y-550531D01*
X22186577Y-550811D01*
X22225424Y-554620D01*
X22225429Y-554620D01*
X22247562Y-556800D01*
X31092438Y-556800D01*
X31111657Y-554907D01*
X31112795Y-554915D01*
X31119143Y-554293D01*
X31137811Y-552331D01*
X31159548Y-550190D01*
X31162631Y-549255D01*
X31198531Y-541885D01*
X31239187Y-534130D01*
X31245293Y-532287D01*
X31282580Y-520745D01*
X31320744Y-504702D01*
X31359133Y-489192D01*
X31364764Y-486198D01*
X31399101Y-467633D01*
X31433417Y-444487D01*
X31468077Y-421805D01*
X31473020Y-417774D01*
X31503095Y-392893D01*
X31532278Y-363504D01*
X31561845Y-334549D01*
X31565911Y-329635D01*
X31590581Y-299386D01*
X31613488Y-264907D01*
X31636880Y-230744D01*
X31639914Y-225134D01*
X31658239Y-190670D01*
X31674025Y-152371D01*
X31690325Y-114339D01*
X31692212Y-108246D01*
X31703494Y-70879D01*
X31711531Y-30287D01*
X31720144Y10234D01*
X31720155Y10336D01*
X31720190Y10452D01*
X31720531Y13917D01*
X31720811Y16577D01*
X31724620Y55424D01*
X31724620Y55429D01*
X31726800Y77562D01*
X31726800Y11022438D01*
X31724907Y11041657D01*
X31724915Y11042795D01*
X31724293Y11049143D01*
X31722331Y11067811D01*
X31720190Y11089548D01*
X31719255Y11092631D01*
X31711890Y11128506D01*
X31704130Y11169186D01*
X31702287Y11175292D01*
X31690745Y11212580D01*
X31674699Y11250752D01*
X31659193Y11289132D01*
X31656199Y11294764D01*
X31637633Y11329100D01*
X31614499Y11363399D01*
X31591805Y11398077D01*
X31587774Y11403020D01*
X31562893Y11433095D01*
X31533503Y11462279D01*
X31504548Y11491846D01*
X31499634Y11495912D01*
X31469386Y11520581D01*
X31434907Y11543488D01*
X31400744Y11566880D01*
X31395134Y11569914D01*
X31360670Y11588239D01*
X31322371Y11604025D01*
X31284339Y11620325D01*
X31278246Y11622212D01*
X31240879Y11633494D01*
X31200280Y11641533D01*
X31159766Y11650144D01*
X31159664Y11650155D01*
X31159548Y11650190D01*
X31156083Y11650531D01*
X31153423Y11650811D01*
X31114576Y11654620D01*
X31114571Y11654620D01*
X31092438Y11656800D01*
X22247562Y11656800D01*
X22228343Y11654907D01*
X22227205Y11654915D01*
X22220857Y11654293D01*
X22202189Y11652331D01*
X22180452Y11650190D01*
X22177369Y11649255D01*
X22141494Y11641890D01*
X22100814Y11634130D01*
X22094708Y11632287D01*
X22057420Y11620745D01*
X22019248Y11604699D01*
X21980868Y11589193D01*
X21975236Y11586199D01*
X21940900Y11567633D01*
X21906601Y11544499D01*
X21871923Y11521805D01*
X21866980Y11517774D01*
X21836905Y11492893D01*
X21807721Y11463503D01*
X21778154Y11434548D01*
X21774088Y11429634D01*
X21749419Y11399386D01*
X21726512Y11364907D01*
X21703120Y11330744D01*
X21700086Y11325134D01*
X21681761Y11290670D01*
X21665975Y11252371D01*
X21649675Y11214339D01*
X21647788Y11208246D01*
X21636506Y11170879D01*
X21628467Y11130280D01*
X21619856Y11089766D01*
X21619845Y11089659D01*
X21619811Y11089548D01*
X21619485Y11086233D01*
X21619189Y11083423D01*
X21615380Y11044576D01*
X21615380Y11044561D01*
X21613201Y11022438D01*
X21613200Y77563D01*
X-48543200Y77563D01*
X-48543200Y7200000D01*
X-39283889Y7200000D01*
X-39275552Y7115352D01*
X-39250861Y7033958D01*
X-39210766Y6958944D01*
X-39156806Y6893194D01*
X-39091056Y6839234D01*
X-39016042Y6799139D01*
X-38934648Y6774448D01*
X-38850000Y6766111D01*
X-38334950Y6768200D01*
X-38227000Y6876150D01*
X-38227000Y7823000D01*
X-37973000Y7823000D01*
X-37973000Y6876150D01*
X-37865050Y6768200D01*
X-37350000Y6766111D01*
X-37265352Y6774448D01*
X-37183958Y6799139D01*
X-37108944Y6839234D01*
X-37043194Y6893194D01*
X-36989234Y6958944D01*
X-36949139Y7033958D01*
X-36924448Y7115352D01*
X-36916111Y7200000D01*
X-36918200Y7715050D01*
X-37026150Y7823000D01*
X-37973000Y7823000D01*
X-38227000Y7823000D01*
X-39173850Y7823000D01*
X-39281800Y7715050D01*
X-39283889Y7200000D01*
X-48543200Y7200000D01*
X-48543200Y8700000D01*
X-39283889Y8700000D01*
X-39281800Y8184950D01*
X-39173850Y8077000D01*
X-38227000Y8077000D01*
X-38227000Y9023850D01*
X-37973000Y9023850D01*
X-37973000Y8077000D01*
X-37026150Y8077000D01*
X-36918200Y8184950D01*
X-36916111Y8700000D01*
X-36924448Y8784648D01*
X-36949139Y8866042D01*
X-36989234Y8941056D01*
X-37043194Y9006806D01*
X-37108944Y9060766D01*
X-37183958Y9100861D01*
X-37265352Y9125552D01*
X-37350000Y9133889D01*
X-37865050Y9131800D01*
X-37973000Y9023850D01*
X-38227000Y9023850D01*
X-38334950Y9131800D01*
X-38850000Y9133889D01*
X-38934648Y9125552D01*
X-39016042Y9100861D01*
X-39091056Y9060766D01*
X-39156806Y9006806D01*
X-39210766Y8941056D01*
X-39250861Y8866042D01*
X-39275552Y8784648D01*
X-39283889Y8700000D01*
X-48543200Y8700000D01*
X-48543200Y10000000D01*
X-28931800Y10000000D01*
X-28846794Y8838569D01*
X-28593588Y7701891D01*
X-28177580Y6614194D01*
X-27607634Y5598659D01*
X-26895899Y4676931D01*
X-26057544Y3868655D01*
X-25110437Y3191059D01*
X-24074764Y2658583D01*
X-22972599Y2282576D01*
X-21827432Y2071053D01*
X-20663671Y2028522D01*
X-19506119Y2155889D01*
X-18379448Y2450439D01*
X-17307669Y2905896D01*
X-16313628Y3512550D01*
X-15418509Y4257474D01*
X-14641391Y5124790D01*
X-13998836Y6096012D01*
X-13504540Y7150441D01*
X-13169038Y8265603D01*
X-12999480Y9417731D01*
X-12999480Y10000000D01*
X-6071800Y10000000D01*
X-5986794Y8838569D01*
X-5733588Y7701891D01*
X-5317580Y6614194D01*
X-4747634Y5598659D01*
X-4035899Y4676931D01*
X-3197544Y3868655D01*
X-2250437Y3191059D01*
X-1214764Y2658583D01*
X-112599Y2282576D01*
X1032568Y2071053D01*
X2196329Y2028522D01*
X3353881Y2155889D01*
X4480552Y2450439D01*
X5552331Y2905896D01*
X6546372Y3512550D01*
X7441491Y4257474D01*
X7473115Y4292769D01*
X14680126Y4292769D01*
X14680126Y3807231D01*
X14774850Y3331023D01*
X14960657Y2882445D01*
X15230408Y2478735D01*
X15573735Y2135408D01*
X15977445Y1865657D01*
X16426023Y1679850D01*
X16902231Y1585126D01*
X17387769Y1585126D01*
X17863977Y1679850D01*
X18312555Y1865657D01*
X18716265Y2135408D01*
X19059592Y2478735D01*
X19329343Y2882445D01*
X19515150Y3331023D01*
X19609874Y3807231D01*
X19609874Y4292769D01*
X19515150Y4768977D01*
X19329343Y5217555D01*
X19059592Y5621265D01*
X18716265Y5964592D01*
X18312555Y6234343D01*
X17863977Y6420150D01*
X17387769Y6514874D01*
X16902231Y6514874D01*
X16426023Y6420150D01*
X15977445Y6234343D01*
X15573735Y5964592D01*
X15230408Y5621265D01*
X14960657Y5217555D01*
X14774850Y4768977D01*
X14680126Y4292769D01*
X7473115Y4292769D01*
X8218609Y5124790D01*
X8861164Y6096012D01*
X9355460Y7150441D01*
X9690962Y8265603D01*
X9860520Y9417731D01*
X9860520Y10582269D01*
X9690962Y11734397D01*
X9355460Y12849559D01*
X8861164Y13903988D01*
X8218609Y14875210D01*
X7441491Y15742526D01*
X6546372Y16487450D01*
X5552331Y17094104D01*
X4480552Y17549561D01*
X3353881Y17844111D01*
X2196329Y17971478D01*
X1032568Y17928947D01*
X-112599Y17717424D01*
X-1214764Y17341417D01*
X-2250437Y16808941D01*
X-3197544Y16131345D01*
X-4035899Y15323069D01*
X-4747634Y14401341D01*
X-5317580Y13385806D01*
X-5733588Y12298109D01*
X-5986794Y11161431D01*
X-6071800Y10000000D01*
X-12999480Y10000000D01*
X-12999480Y10582269D01*
X-13169038Y11734397D01*
X-13504540Y12849559D01*
X-13998836Y13903988D01*
X-14641391Y14875210D01*
X-15418509Y15742526D01*
X-16313628Y16487450D01*
X-17307669Y17094104D01*
X-18379448Y17549561D01*
X-19506119Y17844111D01*
X-20663671Y17971478D01*
X-21827432Y17928947D01*
X-22972599Y17717424D01*
X-24074764Y17341417D01*
X-25110437Y16808941D01*
X-26057544Y16131345D01*
X-26895899Y15323069D01*
X-27607634Y14401341D01*
X-28177580Y13385806D01*
X-28593588Y12298109D01*
X-28846794Y11161431D01*
X-28931800Y10000000D01*
X-48543200Y10000000D01*
X-48543200Y21927657D01*
X-48530706Y22055082D01*
X-48500188Y22156163D01*
X-48450618Y22249390D01*
X-48383884Y22331214D01*
X-48302528Y22398518D01*
X-48209650Y22448737D01*
X-48108784Y22479960D01*
X-47982816Y22493200D01*
X47977657Y22493200D01*
X48105082Y22480706D01*
%TA.AperFunction,Conductor*%
D13*
G36*
X48105082Y22480706D02*
G01*
X48206163Y22450188D01*
X48299390Y22400618D01*
X48381214Y22333884D01*
X48448518Y22252528D01*
X48498737Y22159650D01*
X48529960Y22058784D01*
X48543200Y21932816D01*
X48543201Y-6027647D01*
X48530706Y-6155081D01*
X48500188Y-6256161D01*
X48450618Y-6349391D01*
X48383884Y-6431214D01*
X48302529Y-6498517D01*
X48209649Y-6548737D01*
X48108784Y-6579960D01*
X47982816Y-6593200D01*
X-47977657Y-6593200D01*
X-48105081Y-6580706D01*
X-48206161Y-6550188D01*
X-48299391Y-6500618D01*
X-48381214Y-6433884D01*
X-48448517Y-6352529D01*
X-48498737Y-6259649D01*
X-48529960Y-6158784D01*
X-48543200Y-6032816D01*
X-48543200Y77563D01*
X21613200Y77563D01*
X21615093Y58344D01*
X21615085Y57205D01*
X21615707Y50857D01*
X21617671Y32174D01*
X21619810Y10453D01*
X21620745Y7372D01*
X21628115Y-28531D01*
X21635870Y-69187D01*
X21637713Y-75293D01*
X21649255Y-112580D01*
X21665298Y-150744D01*
X21680808Y-189133D01*
X21683802Y-194764D01*
X21702367Y-229101D01*
X21725513Y-263417D01*
X21748195Y-298077D01*
X21752226Y-303020D01*
X21777107Y-333095D01*
X21806496Y-362278D01*
X21835451Y-391845D01*
X21840365Y-395911D01*
X21870614Y-420581D01*
X21905093Y-443488D01*
X21939256Y-466880D01*
X21944866Y-469914D01*
X21979330Y-488239D01*
X22017620Y-504021D01*
X22055661Y-520325D01*
X22061754Y-522212D01*
X22099121Y-533494D01*
X22139713Y-541531D01*
X22180234Y-550144D01*
X22180336Y-550155D01*
X22180452Y-550190D01*
X22183917Y-550531D01*
X22186577Y-550811D01*
X22225424Y-554620D01*
X22225429Y-554620D01*
X22247562Y-556800D01*
X31092438Y-556800D01*
X31111657Y-554907D01*
X31112795Y-554915D01*
X31119143Y-554293D01*
X31137811Y-552331D01*
X31159548Y-550190D01*
X31162631Y-549255D01*
X31198531Y-541885D01*
X31239187Y-534130D01*
X31245293Y-532287D01*
X31282580Y-520745D01*
X31320744Y-504702D01*
X31359133Y-489192D01*
X31364764Y-486198D01*
X31399101Y-467633D01*
X31433417Y-444487D01*
X31468077Y-421805D01*
X31473020Y-417774D01*
X31503095Y-392893D01*
X31532278Y-363504D01*
X31561845Y-334549D01*
X31565911Y-329635D01*
X31590581Y-299386D01*
X31613488Y-264907D01*
X31636880Y-230744D01*
X31639914Y-225134D01*
X31658239Y-190670D01*
X31674025Y-152371D01*
X31690325Y-114339D01*
X31692212Y-108246D01*
X31703494Y-70879D01*
X31711531Y-30287D01*
X31720144Y10234D01*
X31720155Y10336D01*
X31720190Y10452D01*
X31720531Y13917D01*
X31720811Y16577D01*
X31724620Y55424D01*
X31724620Y55429D01*
X31726800Y77562D01*
X31726800Y11022438D01*
X31724907Y11041657D01*
X31724915Y11042795D01*
X31724293Y11049143D01*
X31722331Y11067811D01*
X31720190Y11089548D01*
X31719255Y11092631D01*
X31711890Y11128506D01*
X31704130Y11169186D01*
X31702287Y11175292D01*
X31690745Y11212580D01*
X31674699Y11250752D01*
X31659193Y11289132D01*
X31656199Y11294764D01*
X31637633Y11329100D01*
X31614499Y11363399D01*
X31591805Y11398077D01*
X31587774Y11403020D01*
X31562893Y11433095D01*
X31533503Y11462279D01*
X31504548Y11491846D01*
X31499634Y11495912D01*
X31469386Y11520581D01*
X31434907Y11543488D01*
X31400744Y11566880D01*
X31395134Y11569914D01*
X31360670Y11588239D01*
X31322371Y11604025D01*
X31284339Y11620325D01*
X31278246Y11622212D01*
X31240879Y11633494D01*
X31200280Y11641533D01*
X31159766Y11650144D01*
X31159664Y11650155D01*
X31159548Y11650190D01*
X31156083Y11650531D01*
X31153423Y11650811D01*
X31114576Y11654620D01*
X31114571Y11654620D01*
X31092438Y11656800D01*
X22247562Y11656800D01*
X22228343Y11654907D01*
X22227205Y11654915D01*
X22220857Y11654293D01*
X22202189Y11652331D01*
X22180452Y11650190D01*
X22177369Y11649255D01*
X22141494Y11641890D01*
X22100814Y11634130D01*
X22094708Y11632287D01*
X22057420Y11620745D01*
X22019248Y11604699D01*
X21980868Y11589193D01*
X21975236Y11586199D01*
X21940900Y11567633D01*
X21906601Y11544499D01*
X21871923Y11521805D01*
X21866980Y11517774D01*
X21836905Y11492893D01*
X21807721Y11463503D01*
X21778154Y11434548D01*
X21774088Y11429634D01*
X21749419Y11399386D01*
X21726512Y11364907D01*
X21703120Y11330744D01*
X21700086Y11325134D01*
X21681761Y11290670D01*
X21665975Y11252371D01*
X21649675Y11214339D01*
X21647788Y11208246D01*
X21636506Y11170879D01*
X21628467Y11130280D01*
X21619856Y11089766D01*
X21619845Y11089659D01*
X21619811Y11089548D01*
X21619485Y11086233D01*
X21619189Y11083423D01*
X21615380Y11044576D01*
X21615380Y11044561D01*
X21613201Y11022438D01*
X21613200Y77563D01*
X-48543200Y77563D01*
X-48543200Y7200000D01*
X-39283889Y7200000D01*
X-39275552Y7115352D01*
X-39250861Y7033958D01*
X-39210766Y6958944D01*
X-39156806Y6893194D01*
X-39091056Y6839234D01*
X-39016042Y6799139D01*
X-38934648Y6774448D01*
X-38850000Y6766111D01*
X-38334950Y6768200D01*
X-38227000Y6876150D01*
X-38227000Y7823000D01*
X-37973000Y7823000D01*
X-37973000Y6876150D01*
X-37865050Y6768200D01*
X-37350000Y6766111D01*
X-37265352Y6774448D01*
X-37183958Y6799139D01*
X-37108944Y6839234D01*
X-37043194Y6893194D01*
X-36989234Y6958944D01*
X-36949139Y7033958D01*
X-36924448Y7115352D01*
X-36916111Y7200000D01*
X-36918200Y7715050D01*
X-37026150Y7823000D01*
X-37973000Y7823000D01*
X-38227000Y7823000D01*
X-39173850Y7823000D01*
X-39281800Y7715050D01*
X-39283889Y7200000D01*
X-48543200Y7200000D01*
X-48543200Y8700000D01*
X-39283889Y8700000D01*
X-39281800Y8184950D01*
X-39173850Y8077000D01*
X-38227000Y8077000D01*
X-38227000Y9023850D01*
X-37973000Y9023850D01*
X-37973000Y8077000D01*
X-37026150Y8077000D01*
X-36918200Y8184950D01*
X-36916111Y8700000D01*
X-36924448Y8784648D01*
X-36949139Y8866042D01*
X-36989234Y8941056D01*
X-37043194Y9006806D01*
X-37108944Y9060766D01*
X-37183958Y9100861D01*
X-37265352Y9125552D01*
X-37350000Y9133889D01*
X-37865050Y9131800D01*
X-37973000Y9023850D01*
X-38227000Y9023850D01*
X-38334950Y9131800D01*
X-38850000Y9133889D01*
X-38934648Y9125552D01*
X-39016042Y9100861D01*
X-39091056Y9060766D01*
X-39156806Y9006806D01*
X-39210766Y8941056D01*
X-39250861Y8866042D01*
X-39275552Y8784648D01*
X-39283889Y8700000D01*
X-48543200Y8700000D01*
X-48543200Y10000000D01*
X-28931800Y10000000D01*
X-28846794Y8838569D01*
X-28593588Y7701891D01*
X-28177580Y6614194D01*
X-27607634Y5598659D01*
X-26895899Y4676931D01*
X-26057544Y3868655D01*
X-25110437Y3191059D01*
X-24074764Y2658583D01*
X-22972599Y2282576D01*
X-21827432Y2071053D01*
X-20663671Y2028522D01*
X-19506119Y2155889D01*
X-18379448Y2450439D01*
X-17307669Y2905896D01*
X-16313628Y3512550D01*
X-15418509Y4257474D01*
X-14641391Y5124790D01*
X-13998836Y6096012D01*
X-13504540Y7150441D01*
X-13169038Y8265603D01*
X-12999480Y9417731D01*
X-12999480Y10000000D01*
X-6071800Y10000000D01*
X-5986794Y8838569D01*
X-5733588Y7701891D01*
X-5317580Y6614194D01*
X-4747634Y5598659D01*
X-4035899Y4676931D01*
X-3197544Y3868655D01*
X-2250437Y3191059D01*
X-1214764Y2658583D01*
X-112599Y2282576D01*
X1032568Y2071053D01*
X2196329Y2028522D01*
X3353881Y2155889D01*
X4480552Y2450439D01*
X5552331Y2905896D01*
X6546372Y3512550D01*
X7441491Y4257474D01*
X7473115Y4292769D01*
X14680126Y4292769D01*
X14680126Y3807231D01*
X14774850Y3331023D01*
X14960657Y2882445D01*
X15230408Y2478735D01*
X15573735Y2135408D01*
X15977445Y1865657D01*
X16426023Y1679850D01*
X16902231Y1585126D01*
X17387769Y1585126D01*
X17863977Y1679850D01*
X18312555Y1865657D01*
X18716265Y2135408D01*
X19059592Y2478735D01*
X19329343Y2882445D01*
X19515150Y3331023D01*
X19609874Y3807231D01*
X19609874Y4292769D01*
X19515150Y4768977D01*
X19329343Y5217555D01*
X19059592Y5621265D01*
X18716265Y5964592D01*
X18312555Y6234343D01*
X17863977Y6420150D01*
X17387769Y6514874D01*
X16902231Y6514874D01*
X16426023Y6420150D01*
X15977445Y6234343D01*
X15573735Y5964592D01*
X15230408Y5621265D01*
X14960657Y5217555D01*
X14774850Y4768977D01*
X14680126Y4292769D01*
X7473115Y4292769D01*
X8218609Y5124790D01*
X8861164Y6096012D01*
X9355460Y7150441D01*
X9690962Y8265603D01*
X9860520Y9417731D01*
X9860520Y10582269D01*
X9690962Y11734397D01*
X9355460Y12849559D01*
X8861164Y13903988D01*
X8218609Y14875210D01*
X7441491Y15742526D01*
X6546372Y16487450D01*
X5552331Y17094104D01*
X4480552Y17549561D01*
X3353881Y17844111D01*
X2196329Y17971478D01*
X1032568Y17928947D01*
X-112599Y17717424D01*
X-1214764Y17341417D01*
X-2250437Y16808941D01*
X-3197544Y16131345D01*
X-4035899Y15323069D01*
X-4747634Y14401341D01*
X-5317580Y13385806D01*
X-5733588Y12298109D01*
X-5986794Y11161431D01*
X-6071800Y10000000D01*
X-12999480Y10000000D01*
X-12999480Y10582269D01*
X-13169038Y11734397D01*
X-13504540Y12849559D01*
X-13998836Y13903988D01*
X-14641391Y14875210D01*
X-15418509Y15742526D01*
X-16313628Y16487450D01*
X-17307669Y17094104D01*
X-18379448Y17549561D01*
X-19506119Y17844111D01*
X-20663671Y17971478D01*
X-21827432Y17928947D01*
X-22972599Y17717424D01*
X-24074764Y17341417D01*
X-25110437Y16808941D01*
X-26057544Y16131345D01*
X-26895899Y15323069D01*
X-27607634Y14401341D01*
X-28177580Y13385806D01*
X-28593588Y12298109D01*
X-28846794Y11161431D01*
X-28931800Y10000000D01*
X-48543200Y10000000D01*
X-48543200Y21927657D01*
X-48530706Y22055082D01*
X-48500188Y22156163D01*
X-48450618Y22249390D01*
X-48383884Y22331214D01*
X-48302528Y22398518D01*
X-48209650Y22448737D01*
X-48108784Y22479960D01*
X-47982816Y22493200D01*
X47977657Y22493200D01*
X48105082Y22480706D01*
G37*
%TD.AperFunction*%
%TD*%
M02*
