%TF.GenerationSoftware,KiCad,Pcbnew,(5.1.9)-1*%
%TF.CreationDate,2021-04-04T20:16:54-07:00*%
%TF.ProjectId,miditwiddle-front,6d696469-7477-4696-9464-6c652d66726f,rev?*%
%TF.SameCoordinates,PX9157080PY68799b0*%
%TF.FileFunction,Legend,Top*%
%TF.FilePolarity,Positive*%
%FSLAX46Y46*%
G04 Gerber Fmt 4.6, Leading zero omitted, Abs format (unit mm)*
G04 Created by KiCad (PCBNEW (5.1.9)-1) date 2021-04-04 20:16:54*
%MOMM*%
%LPD*%
G01*
G04 APERTURE LIST*
%ADD10C,0.300000*%
%ADD11C,0.500000*%
G04 APERTURE END LIST*
D10*
X24483571Y115000D02*
X24340714Y186429D01*
X24126428Y186429D01*
X23912142Y115000D01*
X23769285Y-27857D01*
X23697857Y-170714D01*
X23626428Y-456428D01*
X23626428Y-670714D01*
X23697857Y-956428D01*
X23769285Y-1099285D01*
X23912142Y-1242142D01*
X24126428Y-1313571D01*
X24269285Y-1313571D01*
X24483571Y-1242142D01*
X24555000Y-1170714D01*
X24555000Y-670714D01*
X24269285Y-670714D01*
X25197857Y-1313571D02*
X25197857Y186429D01*
X25697857Y-885000D01*
X26197857Y186429D01*
X26197857Y-1313571D01*
X28912142Y-1313571D02*
X28412142Y-599285D01*
X28055000Y-1313571D02*
X28055000Y186429D01*
X28626428Y186429D01*
X28769285Y115000D01*
X28840714Y43572D01*
X28912142Y-99285D01*
X28912142Y-313571D01*
X28840714Y-456428D01*
X28769285Y-527857D01*
X28626428Y-599285D01*
X28055000Y-599285D01*
X29483571Y-1242142D02*
X29626428Y-1313571D01*
X29912142Y-1313571D01*
X30055000Y-1242142D01*
X30126428Y-1099285D01*
X30126428Y-1027857D01*
X30055000Y-885000D01*
X29912142Y-813571D01*
X29697857Y-813571D01*
X29555000Y-742142D01*
X29483571Y-599285D01*
X29483571Y-527857D01*
X29555000Y-385000D01*
X29697857Y-313571D01*
X29912142Y-313571D01*
X30055000Y-385000D01*
X30555000Y-313571D02*
X31126428Y-313571D01*
X30769285Y186429D02*
X30769285Y-1099285D01*
X30840714Y-1242142D01*
X30983571Y-1313571D01*
X31126428Y-1313571D01*
X917142Y-527857D02*
X1417142Y-527857D01*
X1631428Y-1313571D02*
X917142Y-1313571D01*
X917142Y186429D01*
X1631428Y186429D01*
X2060000Y-313571D02*
X2631428Y-313571D01*
X2274285Y-1313571D02*
X2274285Y-27857D01*
X2345714Y115000D01*
X2488571Y186429D01*
X2631428Y186429D01*
X2917142Y-313571D02*
X3488571Y-313571D01*
X3131428Y-1313571D02*
X3131428Y-27857D01*
X3202857Y115000D01*
X3345714Y186429D01*
X3488571Y186429D01*
X4560000Y-1242142D02*
X4417142Y-1313571D01*
X4131428Y-1313571D01*
X3988571Y-1242142D01*
X3917142Y-1099285D01*
X3917142Y-527857D01*
X3988571Y-385000D01*
X4131428Y-313571D01*
X4417142Y-313571D01*
X4560000Y-385000D01*
X4631428Y-527857D01*
X4631428Y-670714D01*
X3917142Y-813571D01*
X5917142Y-1242142D02*
X5774285Y-1313571D01*
X5488571Y-1313571D01*
X5345714Y-1242142D01*
X5274285Y-1170714D01*
X5202857Y-1027857D01*
X5202857Y-599285D01*
X5274285Y-456428D01*
X5345714Y-385000D01*
X5488571Y-313571D01*
X5774285Y-313571D01*
X5917142Y-385000D01*
X6345714Y-313571D02*
X6917142Y-313571D01*
X6560000Y186429D02*
X6560000Y-1099285D01*
X6631428Y-1242142D01*
X6774285Y-1313571D01*
X6917142Y-1313571D01*
X13752142Y-527857D02*
X14252142Y-527857D01*
X14466428Y-1313571D02*
X13752142Y-1313571D01*
X13752142Y186429D01*
X14466428Y186429D01*
X15109285Y-313571D02*
X15109285Y-1313571D01*
X15109285Y-456428D02*
X15180714Y-385000D01*
X15323571Y-313571D01*
X15537857Y-313571D01*
X15680714Y-385000D01*
X15752142Y-527857D01*
X15752142Y-1313571D01*
X17109285Y-1313571D02*
X17109285Y-527857D01*
X17037857Y-385000D01*
X16895000Y-313571D01*
X16609285Y-313571D01*
X16466428Y-385000D01*
X17109285Y-1242142D02*
X16966428Y-1313571D01*
X16609285Y-1313571D01*
X16466428Y-1242142D01*
X16395000Y-1099285D01*
X16395000Y-956428D01*
X16466428Y-813571D01*
X16609285Y-742142D01*
X16966428Y-742142D01*
X17109285Y-670714D01*
X17823571Y-1313571D02*
X17823571Y186429D01*
X17823571Y-385000D02*
X17966428Y-313571D01*
X18252142Y-313571D01*
X18395000Y-385000D01*
X18466428Y-456428D01*
X18537857Y-599285D01*
X18537857Y-1027857D01*
X18466428Y-1170714D01*
X18395000Y-1242142D01*
X18252142Y-1313571D01*
X17966428Y-1313571D01*
X17823571Y-1242142D01*
X19395000Y-1313571D02*
X19252142Y-1242142D01*
X19180714Y-1099285D01*
X19180714Y186429D01*
X20537857Y-1242142D02*
X20395000Y-1313571D01*
X20109285Y-1313571D01*
X19966428Y-1242142D01*
X19895000Y-1099285D01*
X19895000Y-527857D01*
X19966428Y-385000D01*
X20109285Y-313571D01*
X20395000Y-313571D01*
X20537857Y-385000D01*
X20609285Y-527857D01*
X20609285Y-670714D01*
X19895000Y-813571D01*
X-9255000Y-527857D02*
X-8755000Y-527857D01*
X-8540715Y-1313571D02*
X-9255000Y-1313571D01*
X-9255000Y186429D01*
X-8540715Y186429D01*
X-7897858Y-313571D02*
X-7897858Y-1313571D01*
X-7897858Y-456428D02*
X-7826429Y-385000D01*
X-7683572Y-313571D01*
X-7469286Y-313571D01*
X-7326429Y-385000D01*
X-7255000Y-527857D01*
X-7255000Y-1313571D01*
X-15120715Y-1313571D02*
X-15120715Y186429D01*
X-14620715Y-885000D01*
X-14120715Y186429D01*
X-14120715Y-1313571D01*
X-13477858Y-1242142D02*
X-13335000Y-1313571D01*
X-13049286Y-1313571D01*
X-12906429Y-1242142D01*
X-12835000Y-1099285D01*
X-12835000Y-1027857D01*
X-12906429Y-885000D01*
X-13049286Y-813571D01*
X-13263572Y-813571D01*
X-13406429Y-742142D01*
X-13477858Y-599285D01*
X-13477858Y-527857D01*
X-13406429Y-385000D01*
X-13263572Y-313571D01*
X-13049286Y-313571D01*
X-12906429Y-385000D01*
X-11549286Y-313571D02*
X-11549286Y-1527857D01*
X-11620715Y-1670714D01*
X-11692143Y-1742142D01*
X-11835000Y-1813571D01*
X-12049286Y-1813571D01*
X-12192143Y-1742142D01*
X-11549286Y-1242142D02*
X-11692143Y-1313571D01*
X-11977858Y-1313571D01*
X-12120715Y-1242142D01*
X-12192143Y-1170714D01*
X-12263572Y-1027857D01*
X-12263572Y-599285D01*
X-12192143Y-456428D01*
X-12120715Y-385000D01*
X-11977858Y-313571D01*
X-11692143Y-313571D01*
X-11549286Y-385000D01*
X-20057858Y-1313571D02*
X-20057858Y186429D01*
X-19486429Y186429D01*
X-19343572Y115000D01*
X-19272143Y43572D01*
X-19200715Y-99285D01*
X-19200715Y-313571D01*
X-19272143Y-456428D01*
X-19343572Y-527857D01*
X-19486429Y-599285D01*
X-20057858Y-599285D01*
X-18700715Y-313571D02*
X-18415000Y-1313571D01*
X-18129286Y-599285D01*
X-17843572Y-1313571D01*
X-17557858Y-313571D01*
X-16986429Y-1313571D02*
X-16986429Y-313571D01*
X-16986429Y-599285D02*
X-16915000Y-456428D01*
X-16843572Y-385000D01*
X-16700715Y-313571D01*
X-16557858Y-313571D01*
X-29634286Y-1313571D02*
X-29634286Y186429D01*
X-29062858Y186429D01*
X-28920000Y115000D01*
X-28848572Y43572D01*
X-28777143Y-99285D01*
X-28777143Y-313571D01*
X-28848572Y-456428D01*
X-28920000Y-527857D01*
X-29062858Y-599285D01*
X-29634286Y-599285D01*
X-27920000Y-1313571D02*
X-28062858Y-1242142D01*
X-28134286Y-1170714D01*
X-28205715Y-1027857D01*
X-28205715Y-599285D01*
X-28134286Y-456428D01*
X-28062858Y-385000D01*
X-27920000Y-313571D01*
X-27705715Y-313571D01*
X-27562858Y-385000D01*
X-27491429Y-456428D01*
X-27420000Y-599285D01*
X-27420000Y-1027857D01*
X-27491429Y-1170714D01*
X-27562858Y-1242142D01*
X-27705715Y-1313571D01*
X-27920000Y-1313571D01*
X-26920000Y-313571D02*
X-26634286Y-1313571D01*
X-26348572Y-599285D01*
X-26062858Y-1313571D01*
X-25777143Y-313571D01*
X-24634286Y-1242142D02*
X-24777143Y-1313571D01*
X-25062858Y-1313571D01*
X-25205715Y-1242142D01*
X-25277143Y-1099285D01*
X-25277143Y-527857D01*
X-25205715Y-385000D01*
X-25062858Y-313571D01*
X-24777143Y-313571D01*
X-24634286Y-385000D01*
X-24562858Y-527857D01*
X-24562858Y-670714D01*
X-25277143Y-813571D01*
X-23920000Y-1313571D02*
X-23920000Y-313571D01*
X-23920000Y-599285D02*
X-23848572Y-456428D01*
X-23777143Y-385000D01*
X-23634286Y-313571D01*
X-23491429Y-313571D01*
D11*
X19839285Y16014048D02*
X19839285Y18514048D01*
X20672619Y16728334D01*
X21505952Y18514048D01*
X21505952Y16014048D01*
X22696428Y16014048D02*
X22696428Y18514048D01*
X23886904Y16014048D02*
X23886904Y18514048D01*
X24482142Y18514048D01*
X24839285Y18395000D01*
X25077380Y18156905D01*
X25196428Y17918810D01*
X25315476Y17442620D01*
X25315476Y17085477D01*
X25196428Y16609286D01*
X25077380Y16371191D01*
X24839285Y16133096D01*
X24482142Y16014048D01*
X23886904Y16014048D01*
X26386904Y16014048D02*
X26386904Y18514048D01*
X29125000Y18514048D02*
X30553571Y18514048D01*
X29839285Y16014048D02*
X29839285Y18514048D01*
X31148809Y17680715D02*
X31625000Y16014048D01*
X32101190Y17204524D01*
X32577380Y16014048D01*
X33053571Y17680715D01*
X34005952Y16014048D02*
X34005952Y17680715D01*
X34005952Y18514048D02*
X33886904Y18395000D01*
X34005952Y18275953D01*
X34125000Y18395000D01*
X34005952Y18514048D01*
X34005952Y18275953D01*
X36267857Y16014048D02*
X36267857Y18514048D01*
X36267857Y16133096D02*
X36029761Y16014048D01*
X35553571Y16014048D01*
X35315476Y16133096D01*
X35196428Y16252143D01*
X35077380Y16490239D01*
X35077380Y17204524D01*
X35196428Y17442620D01*
X35315476Y17561667D01*
X35553571Y17680715D01*
X36029761Y17680715D01*
X36267857Y17561667D01*
X38529761Y16014048D02*
X38529761Y18514048D01*
X38529761Y16133096D02*
X38291666Y16014048D01*
X37815476Y16014048D01*
X37577380Y16133096D01*
X37458333Y16252143D01*
X37339285Y16490239D01*
X37339285Y17204524D01*
X37458333Y17442620D01*
X37577380Y17561667D01*
X37815476Y17680715D01*
X38291666Y17680715D01*
X38529761Y17561667D01*
X40077380Y16014048D02*
X39839285Y16133096D01*
X39720238Y16371191D01*
X39720238Y18514048D01*
X41982142Y16133096D02*
X41744047Y16014048D01*
X41267857Y16014048D01*
X41029761Y16133096D01*
X40910714Y16371191D01*
X40910714Y17323572D01*
X41029761Y17561667D01*
X41267857Y17680715D01*
X41744047Y17680715D01*
X41982142Y17561667D01*
X42101190Y17323572D01*
X42101190Y17085477D01*
X40910714Y16847381D01*
X43172619Y16014048D02*
X43172619Y17680715D01*
X43172619Y17204524D02*
X43291666Y17442620D01*
X43410714Y17561667D01*
X43648809Y17680715D01*
X43886904Y17680715D01*
X-44164762Y16014048D02*
X-44164762Y18514048D01*
X-43212381Y18514048D01*
X-42974286Y18395000D01*
X-42855239Y18275953D01*
X-42736191Y18037858D01*
X-42736191Y17680715D01*
X-42855239Y17442620D01*
X-42974286Y17323572D01*
X-43212381Y17204524D01*
X-44164762Y17204524D01*
X-41664762Y16014048D02*
X-41664762Y18514048D01*
X-41069524Y18514048D01*
X-40712381Y18395000D01*
X-40474286Y18156905D01*
X-40355239Y17918810D01*
X-40236191Y17442620D01*
X-40236191Y17085477D01*
X-40355239Y16609286D01*
X-40474286Y16371191D01*
X-40712381Y16133096D01*
X-41069524Y16014048D01*
X-41664762Y16014048D01*
X-39283810Y18275953D02*
X-39164762Y18395000D01*
X-38926667Y18514048D01*
X-38331429Y18514048D01*
X-38093334Y18395000D01*
X-37974286Y18275953D01*
X-37855239Y18037858D01*
X-37855239Y17799762D01*
X-37974286Y17442620D01*
X-39402858Y16014048D01*
X-37855239Y16014048D01*
X-36307620Y18514048D02*
X-36069524Y18514048D01*
X-35831429Y18395000D01*
X-35712381Y18275953D01*
X-35593334Y18037858D01*
X-35474286Y17561667D01*
X-35474286Y16966429D01*
X-35593334Y16490239D01*
X-35712381Y16252143D01*
X-35831429Y16133096D01*
X-36069524Y16014048D01*
X-36307620Y16014048D01*
X-36545715Y16133096D01*
X-36664762Y16252143D01*
X-36783810Y16490239D01*
X-36902858Y16966429D01*
X-36902858Y17561667D01*
X-36783810Y18037858D01*
X-36664762Y18275953D01*
X-36545715Y18395000D01*
X-36307620Y18514048D01*
X-33093334Y16014048D02*
X-34521905Y16014048D01*
X-33807620Y16014048D02*
X-33807620Y18514048D01*
X-34045715Y18156905D01*
X-34283810Y17918810D01*
X-34521905Y17799762D01*
M02*
