%TF.GenerationSoftware,KiCad,Pcbnew,(6.0.11)*%
%TF.CreationDate,2023-08-23T19:51:56-07:00*%
%TF.ProjectId,miditwiddle-back,6d696469-7477-4696-9464-6c652d626163,rev?*%
%TF.SameCoordinates,PX9157080PY68799b0*%
%TF.FileFunction,Copper,L1,Top*%
%TF.FilePolarity,Positive*%
%FSLAX46Y46*%
G04 Gerber Fmt 4.6, Leading zero omitted, Abs format (unit mm)*
G04 Created by KiCad (PCBNEW (6.0.11)) date 2023-08-23 19:51:56*
%MOMM*%
%LPD*%
G01*
G04 APERTURE LIST*
%TA.AperFunction,ViaPad*%
%ADD10C,0.600000*%
%TD*%
G04 APERTURE END LIST*
D10*
%TO.N,GND*%
X-48000000Y21950000D03*
X-48000000Y-6050000D03*
X48000000Y-6050000D03*
X48000000Y21950000D03*
%TD*%
%TA.AperFunction,Conductor*%
%TO.N,GND*%
G36*
X47984142Y22642786D02*
G01*
X48000000Y22639990D01*
X48010855Y22641904D01*
X48021879Y22641904D01*
X48021879Y22640865D01*
X48034345Y22641317D01*
X48123179Y22632568D01*
X48147405Y22627749D01*
X48253973Y22595422D01*
X48276793Y22585970D01*
X48375010Y22533472D01*
X48395548Y22519749D01*
X48481634Y22449099D01*
X48499099Y22431634D01*
X48569749Y22345548D01*
X48583472Y22325010D01*
X48635970Y22226793D01*
X48645422Y22203973D01*
X48677749Y22097405D01*
X48682568Y22073179D01*
X48691317Y21984345D01*
X48690865Y21971879D01*
X48691904Y21971879D01*
X48691904Y21960855D01*
X48689990Y21950000D01*
X48691904Y21939146D01*
X48692786Y21934144D01*
X48694700Y21912264D01*
X48694700Y-6012264D01*
X48692786Y-6034142D01*
X48689990Y-6050000D01*
X48691904Y-6060855D01*
X48691904Y-6071879D01*
X48690865Y-6071879D01*
X48691317Y-6084345D01*
X48682568Y-6173179D01*
X48677749Y-6197405D01*
X48645422Y-6303973D01*
X48635970Y-6326793D01*
X48583472Y-6425010D01*
X48569749Y-6445548D01*
X48499099Y-6531634D01*
X48481634Y-6549099D01*
X48395548Y-6619749D01*
X48375010Y-6633472D01*
X48276793Y-6685970D01*
X48253973Y-6695422D01*
X48147405Y-6727749D01*
X48123179Y-6732568D01*
X48034345Y-6741317D01*
X48021879Y-6740865D01*
X48021879Y-6741904D01*
X48010855Y-6741904D01*
X48000000Y-6739990D01*
X47984142Y-6742786D01*
X47962264Y-6744700D01*
X-47962264Y-6744700D01*
X-47984142Y-6742786D01*
X-48000000Y-6739990D01*
X-48010855Y-6741904D01*
X-48021879Y-6741904D01*
X-48021879Y-6740865D01*
X-48034345Y-6741317D01*
X-48123179Y-6732568D01*
X-48147405Y-6727749D01*
X-48253973Y-6695422D01*
X-48276793Y-6685970D01*
X-48375010Y-6633472D01*
X-48395548Y-6619749D01*
X-48481634Y-6549099D01*
X-48499099Y-6531634D01*
X-48569749Y-6445548D01*
X-48583472Y-6425010D01*
X-48635970Y-6326793D01*
X-48645422Y-6303973D01*
X-48677749Y-6197405D01*
X-48682568Y-6173179D01*
X-48691317Y-6084345D01*
X-48690865Y-6071879D01*
X-48691904Y-6071879D01*
X-48691904Y-6060855D01*
X-48689990Y-6050000D01*
X-48692786Y-6034142D01*
X-48694700Y-6012264D01*
X-48694700Y100000D01*
X21759990Y100000D01*
X21761904Y89146D01*
X21761904Y89140D01*
X21763498Y80099D01*
X21763563Y79651D01*
X21763591Y79576D01*
X21763599Y79531D01*
X21763591Y79457D01*
X21764611Y72410D01*
X21764691Y71704D01*
X21762713Y71480D01*
X21762699Y71354D01*
X21764705Y71580D01*
X21774252Y-13151D01*
X21811860Y-120629D01*
X21872441Y-217043D01*
X21952957Y-297559D01*
X22049371Y-358140D01*
X22156849Y-395748D01*
X22163877Y-396540D01*
X22163886Y-396542D01*
X22188831Y-399353D01*
X22202338Y-401747D01*
X22209673Y-404673D01*
X22216068Y-405300D01*
X22232264Y-405300D01*
X22254141Y-407214D01*
X22270000Y-410010D01*
X22285858Y-407214D01*
X22307736Y-405300D01*
X31032264Y-405300D01*
X31054142Y-407214D01*
X31070000Y-410010D01*
X31080855Y-408096D01*
X31080860Y-408096D01*
X31089901Y-406502D01*
X31090349Y-406437D01*
X31090424Y-406409D01*
X31090469Y-406401D01*
X31090543Y-406409D01*
X31097590Y-405389D01*
X31098296Y-405309D01*
X31098520Y-407287D01*
X31098646Y-407301D01*
X31098420Y-405295D01*
X31176122Y-396540D01*
X31183151Y-395748D01*
X31290629Y-358140D01*
X31387043Y-297559D01*
X31467559Y-217043D01*
X31528140Y-120629D01*
X31565748Y-13151D01*
X31566540Y-6122D01*
X31566542Y-6114D01*
X31569353Y18831D01*
X31571747Y32338D01*
X31574673Y39673D01*
X31575300Y46068D01*
X31575300Y62264D01*
X31577214Y84144D01*
X31578096Y89146D01*
X31580010Y100000D01*
X31577214Y115858D01*
X31575300Y137736D01*
X31575300Y10962264D01*
X31577214Y10984144D01*
X31578096Y10989146D01*
X31580010Y11000000D01*
X31578096Y11010855D01*
X31578096Y11010860D01*
X31576502Y11019901D01*
X31576437Y11020349D01*
X31576409Y11020424D01*
X31576401Y11020469D01*
X31576409Y11020543D01*
X31575389Y11027590D01*
X31575309Y11028296D01*
X31577287Y11028520D01*
X31577301Y11028646D01*
X31575295Y11028420D01*
X31566540Y11106122D01*
X31565748Y11113151D01*
X31528140Y11220629D01*
X31467559Y11317043D01*
X31387043Y11397559D01*
X31290629Y11458140D01*
X31183151Y11495748D01*
X31176123Y11496540D01*
X31176114Y11496542D01*
X31151169Y11499353D01*
X31137662Y11501747D01*
X31130327Y11504673D01*
X31123932Y11505300D01*
X31107736Y11505300D01*
X31085859Y11507214D01*
X31070000Y11510010D01*
X31054142Y11507214D01*
X31032264Y11505300D01*
X22307736Y11505300D01*
X22285858Y11507214D01*
X22270000Y11510010D01*
X22259145Y11508096D01*
X22259140Y11508096D01*
X22250099Y11506502D01*
X22249651Y11506437D01*
X22249576Y11506409D01*
X22249531Y11506401D01*
X22249457Y11506409D01*
X22242410Y11505389D01*
X22241704Y11505309D01*
X22241480Y11507287D01*
X22241354Y11507301D01*
X22241580Y11505295D01*
X22156849Y11495748D01*
X22049371Y11458140D01*
X21952957Y11397559D01*
X21872441Y11317043D01*
X21811860Y11220629D01*
X21774252Y11113151D01*
X21773460Y11106123D01*
X21773458Y11106114D01*
X21770647Y11081169D01*
X21768253Y11067662D01*
X21765327Y11060327D01*
X21764700Y11053932D01*
X21764700Y11037736D01*
X21762786Y11015859D01*
X21759990Y11000000D01*
X21761904Y10989146D01*
X21762786Y10984144D01*
X21764700Y10962264D01*
X21764700Y137736D01*
X21762786Y115858D01*
X21759990Y100000D01*
X-48694700Y100000D01*
X-48694700Y10000000D01*
X-28765277Y10000000D01*
X-28762646Y9924659D01*
X-28746252Y9455183D01*
X-28689268Y8913020D01*
X-28594604Y8376152D01*
X-28462720Y7847196D01*
X-28294260Y7328728D01*
X-28293435Y7326687D01*
X-28293431Y7326675D01*
X-28108373Y6868643D01*
X-28090043Y6823274D01*
X-28089079Y6821298D01*
X-28089077Y6821293D01*
X-27854569Y6340482D01*
X-27851065Y6333297D01*
X-27578491Y5861184D01*
X-27577263Y5859364D01*
X-27577259Y5859357D01*
X-27495572Y5738251D01*
X-27273647Y5409234D01*
X-26938019Y4979651D01*
X-26936535Y4978003D01*
X-26574714Y4576159D01*
X-26574705Y4576149D01*
X-26573243Y4574526D01*
X-26181095Y4195833D01*
X-26179415Y4194423D01*
X-26179408Y4194417D01*
X-26012207Y4054119D01*
X-25763487Y3845418D01*
X-25761704Y3844122D01*
X-25761693Y3844114D01*
X-25364618Y3555623D01*
X-25322451Y3524987D01*
X-24860139Y3236102D01*
X-24735467Y3169813D01*
X-24472712Y3030104D01*
X-24378800Y2980170D01*
X-24376782Y2979272D01*
X-24376783Y2979272D01*
X-23882776Y2759325D01*
X-23882770Y2759323D01*
X-23880781Y2758437D01*
X-23878732Y2757691D01*
X-23878724Y2757688D01*
X-23662417Y2678959D01*
X-23368508Y2571985D01*
X-22844477Y2421722D01*
X-22311240Y2308379D01*
X-21771396Y2232509D01*
X-21769208Y2232356D01*
X-21229765Y2194634D01*
X-21229761Y2194634D01*
X-21227575Y2194481D01*
X-20682425Y2194481D01*
X-20680239Y2194634D01*
X-20680235Y2194634D01*
X-20140792Y2232356D01*
X-20138604Y2232509D01*
X-19598760Y2308379D01*
X-19065523Y2421722D01*
X-18541492Y2571985D01*
X-18247583Y2678959D01*
X-18031276Y2757688D01*
X-18031268Y2757691D01*
X-18029219Y2758437D01*
X-18027230Y2759323D01*
X-18027224Y2759325D01*
X-17533217Y2979272D01*
X-17533218Y2979272D01*
X-17531200Y2980170D01*
X-17437287Y3030104D01*
X-17174533Y3169813D01*
X-17049861Y3236102D01*
X-16587549Y3524987D01*
X-16545382Y3555623D01*
X-16148307Y3844114D01*
X-16148296Y3844122D01*
X-16146513Y3845418D01*
X-15897793Y4054119D01*
X-15730592Y4194417D01*
X-15730585Y4194423D01*
X-15728905Y4195833D01*
X-15336757Y4574526D01*
X-15335295Y4576149D01*
X-15335286Y4576159D01*
X-14973465Y4978003D01*
X-14971981Y4979651D01*
X-14636353Y5409234D01*
X-14414428Y5738251D01*
X-14332741Y5859357D01*
X-14332737Y5859364D01*
X-14331509Y5861184D01*
X-14058935Y6333297D01*
X-14055430Y6340482D01*
X-13820923Y6821293D01*
X-13820921Y6821298D01*
X-13819957Y6823274D01*
X-13801627Y6868643D01*
X-13616569Y7326675D01*
X-13616565Y7326687D01*
X-13615740Y7328728D01*
X-13447280Y7847196D01*
X-13315396Y8376152D01*
X-13220732Y8913020D01*
X-13163748Y9455183D01*
X-13144723Y10000000D01*
X-5905277Y10000000D01*
X-5902646Y9924659D01*
X-5886252Y9455183D01*
X-5829268Y8913020D01*
X-5734604Y8376152D01*
X-5602720Y7847196D01*
X-5434260Y7328728D01*
X-5433435Y7326687D01*
X-5433431Y7326675D01*
X-5248373Y6868643D01*
X-5230043Y6823274D01*
X-5229079Y6821298D01*
X-5229077Y6821293D01*
X-4994569Y6340482D01*
X-4991065Y6333297D01*
X-4718491Y5861184D01*
X-4717263Y5859364D01*
X-4717259Y5859357D01*
X-4635572Y5738251D01*
X-4413647Y5409234D01*
X-4078019Y4979651D01*
X-4076535Y4978003D01*
X-3714714Y4576159D01*
X-3714705Y4576149D01*
X-3713243Y4574526D01*
X-3321095Y4195833D01*
X-3319415Y4194423D01*
X-3319408Y4194417D01*
X-3152207Y4054119D01*
X-2903487Y3845418D01*
X-2901704Y3844122D01*
X-2901693Y3844114D01*
X-2504618Y3555623D01*
X-2462451Y3524987D01*
X-2000139Y3236102D01*
X-1875467Y3169813D01*
X-1612712Y3030104D01*
X-1518800Y2980170D01*
X-1516782Y2979272D01*
X-1516783Y2979272D01*
X-1022776Y2759325D01*
X-1022770Y2759323D01*
X-1020781Y2758437D01*
X-1018732Y2757691D01*
X-1018724Y2757688D01*
X-802417Y2678959D01*
X-508508Y2571985D01*
X15523Y2421722D01*
X548760Y2308379D01*
X1088604Y2232509D01*
X1090792Y2232356D01*
X1630235Y2194634D01*
X1630239Y2194634D01*
X1632425Y2194481D01*
X2177575Y2194481D01*
X2179761Y2194634D01*
X2179765Y2194634D01*
X2719208Y2232356D01*
X2721396Y2232509D01*
X3261240Y2308379D01*
X3794477Y2421722D01*
X4318508Y2571985D01*
X4612417Y2678959D01*
X4828724Y2757688D01*
X4828732Y2757691D01*
X4830781Y2758437D01*
X4832770Y2759323D01*
X4832776Y2759325D01*
X5326783Y2979272D01*
X5326782Y2979272D01*
X5328800Y2980170D01*
X5422713Y3030104D01*
X5685467Y3169813D01*
X5810139Y3236102D01*
X6272451Y3524987D01*
X6314618Y3555623D01*
X6711693Y3844114D01*
X6711704Y3844122D01*
X6713487Y3845418D01*
X6957298Y4050000D01*
X14834754Y4050000D01*
X14835024Y4045880D01*
X14848163Y3845418D01*
X14854518Y3748452D01*
X14855320Y3744419D01*
X14855321Y3744413D01*
X14899201Y3523817D01*
X14913474Y3452064D01*
X14914801Y3448155D01*
X14914802Y3448151D01*
X14986388Y3237266D01*
X15010611Y3165907D01*
X15144268Y2894877D01*
X15312159Y2643611D01*
X15511409Y2416409D01*
X15738611Y2217159D01*
X15989877Y2049268D01*
X15993576Y2047444D01*
X15993581Y2047441D01*
X16132691Y1978840D01*
X16260907Y1915611D01*
X16264812Y1914286D01*
X16264813Y1914285D01*
X16543151Y1819802D01*
X16543155Y1819801D01*
X16547064Y1818474D01*
X16551108Y1817670D01*
X16551114Y1817668D01*
X16839413Y1760321D01*
X16839419Y1760320D01*
X16843452Y1759518D01*
X16847557Y1759249D01*
X16847564Y1759248D01*
X17140880Y1740024D01*
X17145000Y1739754D01*
X17149120Y1740024D01*
X17442436Y1759248D01*
X17442443Y1759249D01*
X17446548Y1759518D01*
X17450581Y1760320D01*
X17450587Y1760321D01*
X17738886Y1817668D01*
X17738892Y1817670D01*
X17742936Y1818474D01*
X17746845Y1819801D01*
X17746849Y1819802D01*
X18025187Y1914285D01*
X18025188Y1914286D01*
X18029093Y1915611D01*
X18157309Y1978840D01*
X18296419Y2047441D01*
X18296424Y2047444D01*
X18300123Y2049268D01*
X18551389Y2217159D01*
X18778591Y2416409D01*
X18977841Y2643611D01*
X19145732Y2894877D01*
X19279389Y3165907D01*
X19303612Y3237266D01*
X19375198Y3448151D01*
X19375199Y3448155D01*
X19376526Y3452064D01*
X19390799Y3523817D01*
X19434679Y3744413D01*
X19434680Y3744419D01*
X19435482Y3748452D01*
X19441838Y3845418D01*
X19454976Y4045880D01*
X19455246Y4050000D01*
X19452488Y4092078D01*
X19435752Y4347436D01*
X19435751Y4347443D01*
X19435482Y4351548D01*
X19395282Y4553648D01*
X19377332Y4643886D01*
X19377330Y4643892D01*
X19376526Y4647936D01*
X19318330Y4819378D01*
X19280715Y4930187D01*
X19280714Y4930188D01*
X19279389Y4934093D01*
X19145732Y5205123D01*
X18977841Y5456389D01*
X18778591Y5683591D01*
X18551389Y5882841D01*
X18300123Y6050732D01*
X18296424Y6052556D01*
X18296419Y6052559D01*
X18109195Y6144887D01*
X18029093Y6184389D01*
X18025187Y6185715D01*
X17746849Y6280198D01*
X17746845Y6280199D01*
X17742936Y6281526D01*
X17738892Y6282330D01*
X17738886Y6282332D01*
X17450587Y6339679D01*
X17450581Y6339680D01*
X17446548Y6340482D01*
X17442443Y6340751D01*
X17442436Y6340752D01*
X17149120Y6359976D01*
X17145000Y6360246D01*
X17140880Y6359976D01*
X16847564Y6340752D01*
X16847557Y6340751D01*
X16843452Y6340482D01*
X16839419Y6339680D01*
X16839413Y6339679D01*
X16551114Y6282332D01*
X16551108Y6282330D01*
X16547064Y6281526D01*
X16543155Y6280199D01*
X16543151Y6280198D01*
X16264813Y6185715D01*
X16260907Y6184389D01*
X16180805Y6144887D01*
X15993581Y6052559D01*
X15993576Y6052556D01*
X15989877Y6050732D01*
X15738611Y5882841D01*
X15511409Y5683591D01*
X15312159Y5456389D01*
X15144268Y5205123D01*
X15010611Y4934093D01*
X15009286Y4930188D01*
X15009285Y4930187D01*
X14971671Y4819378D01*
X14913474Y4647936D01*
X14912670Y4643892D01*
X14912668Y4643886D01*
X14893094Y4545482D01*
X14854518Y4351548D01*
X14837662Y4094362D01*
X14834754Y4050000D01*
X6957298Y4050000D01*
X6962207Y4054119D01*
X7129408Y4194417D01*
X7129415Y4194423D01*
X7131095Y4195833D01*
X7523243Y4574526D01*
X7524705Y4576149D01*
X7524714Y4576159D01*
X7886535Y4978003D01*
X7888019Y4979651D01*
X8223647Y5409234D01*
X8445572Y5738251D01*
X8527259Y5859357D01*
X8527263Y5859364D01*
X8528491Y5861184D01*
X8801065Y6333297D01*
X8804570Y6340482D01*
X9039077Y6821293D01*
X9039079Y6821298D01*
X9040043Y6823274D01*
X9058373Y6868643D01*
X9243431Y7326675D01*
X9243435Y7326687D01*
X9244260Y7328728D01*
X9412720Y7847196D01*
X9544604Y8376152D01*
X9639268Y8913020D01*
X9696252Y9455183D01*
X9715277Y10000000D01*
X9696252Y10544817D01*
X9647269Y11010860D01*
X9639498Y11084794D01*
X9639497Y11084801D01*
X9639268Y11086980D01*
X9573411Y11460477D01*
X9544986Y11621683D01*
X9544985Y11621690D01*
X9544604Y11623848D01*
X9412720Y12152804D01*
X9244260Y12671272D01*
X9085849Y13063354D01*
X9040871Y13174677D01*
X9040869Y13174681D01*
X9040043Y13176726D01*
X8898919Y13466073D01*
X8802035Y13664715D01*
X8802030Y13664724D01*
X8801065Y13666703D01*
X8528491Y14138816D01*
X8223647Y14590766D01*
X7888019Y15020349D01*
X7732700Y15192848D01*
X7524714Y15423841D01*
X7524705Y15423851D01*
X7523243Y15425474D01*
X7131095Y15804167D01*
X7129415Y15805577D01*
X7129408Y15805583D01*
X6715183Y16153159D01*
X6715181Y16153161D01*
X6713487Y16154582D01*
X6711704Y16155878D01*
X6711693Y16155886D01*
X6274239Y16473714D01*
X6274238Y16473715D01*
X6272451Y16475013D01*
X5810139Y16763898D01*
X5328800Y17019830D01*
X5043130Y17147019D01*
X4832776Y17240675D01*
X4832770Y17240677D01*
X4830781Y17241563D01*
X4828732Y17242309D01*
X4828724Y17242312D01*
X4320582Y17427260D01*
X4318508Y17428015D01*
X3794477Y17578278D01*
X3261240Y17691621D01*
X2721396Y17767491D01*
X2714668Y17767961D01*
X2179765Y17805366D01*
X2179761Y17805366D01*
X2177575Y17805519D01*
X1632425Y17805519D01*
X1630239Y17805366D01*
X1630235Y17805366D01*
X1095332Y17767961D01*
X1088604Y17767491D01*
X548760Y17691621D01*
X15523Y17578278D01*
X-508508Y17428015D01*
X-510582Y17427260D01*
X-1018724Y17242312D01*
X-1018732Y17242309D01*
X-1020781Y17241563D01*
X-1022770Y17240677D01*
X-1022776Y17240675D01*
X-1233130Y17147019D01*
X-1518800Y17019830D01*
X-2000138Y16763898D01*
X-2462451Y16475013D01*
X-2464238Y16473715D01*
X-2464239Y16473714D01*
X-2901693Y16155886D01*
X-2901704Y16155878D01*
X-2903487Y16154582D01*
X-2905181Y16153161D01*
X-2905183Y16153159D01*
X-3319408Y15805583D01*
X-3319415Y15805577D01*
X-3321095Y15804167D01*
X-3713243Y15425474D01*
X-3714705Y15423851D01*
X-3714714Y15423841D01*
X-3922700Y15192848D01*
X-4078019Y15020349D01*
X-4413647Y14590766D01*
X-4718491Y14138816D01*
X-4991065Y13666703D01*
X-4992030Y13664724D01*
X-4992035Y13664715D01*
X-5088919Y13466073D01*
X-5230043Y13176726D01*
X-5230869Y13174681D01*
X-5230871Y13174677D01*
X-5275848Y13063354D01*
X-5434260Y12671272D01*
X-5602720Y12152804D01*
X-5734604Y11623848D01*
X-5734985Y11621690D01*
X-5734986Y11621683D01*
X-5763411Y11460477D01*
X-5829268Y11086980D01*
X-5829497Y11084801D01*
X-5829498Y11084794D01*
X-5837269Y11010860D01*
X-5886252Y10544817D01*
X-5905277Y10000000D01*
X-13144723Y10000000D01*
X-13163748Y10544817D01*
X-13212731Y11010860D01*
X-13220502Y11084794D01*
X-13220503Y11084801D01*
X-13220732Y11086980D01*
X-13286589Y11460477D01*
X-13315014Y11621683D01*
X-13315015Y11621690D01*
X-13315396Y11623848D01*
X-13447280Y12152804D01*
X-13615740Y12671272D01*
X-13774151Y13063354D01*
X-13819129Y13174677D01*
X-13819131Y13174681D01*
X-13819957Y13176726D01*
X-13961081Y13466073D01*
X-14057965Y13664715D01*
X-14057970Y13664724D01*
X-14058935Y13666703D01*
X-14331509Y14138816D01*
X-14636353Y14590766D01*
X-14971981Y15020349D01*
X-15127300Y15192848D01*
X-15335286Y15423841D01*
X-15335295Y15423851D01*
X-15336757Y15425474D01*
X-15728905Y15804167D01*
X-15730585Y15805577D01*
X-15730592Y15805583D01*
X-16144817Y16153159D01*
X-16144819Y16153161D01*
X-16146513Y16154582D01*
X-16148296Y16155878D01*
X-16148307Y16155886D01*
X-16585761Y16473714D01*
X-16585762Y16473715D01*
X-16587549Y16475013D01*
X-17049861Y16763898D01*
X-17531200Y17019830D01*
X-17816870Y17147019D01*
X-18027224Y17240675D01*
X-18027230Y17240677D01*
X-18029219Y17241563D01*
X-18031268Y17242309D01*
X-18031276Y17242312D01*
X-18539418Y17427260D01*
X-18541492Y17428015D01*
X-19065523Y17578278D01*
X-19598760Y17691621D01*
X-20138604Y17767491D01*
X-20145332Y17767961D01*
X-20680235Y17805366D01*
X-20680239Y17805366D01*
X-20682425Y17805519D01*
X-21227575Y17805519D01*
X-21229761Y17805366D01*
X-21229765Y17805366D01*
X-21764668Y17767961D01*
X-21771396Y17767491D01*
X-22311240Y17691621D01*
X-22844477Y17578278D01*
X-23368508Y17428015D01*
X-23370582Y17427260D01*
X-23878724Y17242312D01*
X-23878732Y17242309D01*
X-23880781Y17241563D01*
X-23882770Y17240677D01*
X-23882776Y17240675D01*
X-24093130Y17147019D01*
X-24378800Y17019830D01*
X-24860138Y16763898D01*
X-25322451Y16475013D01*
X-25324238Y16473715D01*
X-25324239Y16473714D01*
X-25761693Y16155886D01*
X-25761704Y16155878D01*
X-25763487Y16154582D01*
X-25765181Y16153161D01*
X-25765183Y16153159D01*
X-26179408Y15805583D01*
X-26179415Y15805577D01*
X-26181095Y15804167D01*
X-26573243Y15425474D01*
X-26574705Y15423851D01*
X-26574714Y15423841D01*
X-26782700Y15192848D01*
X-26938019Y15020349D01*
X-27273647Y14590766D01*
X-27578491Y14138816D01*
X-27851065Y13666703D01*
X-27852030Y13664724D01*
X-27852035Y13664715D01*
X-27948919Y13466073D01*
X-28090043Y13176726D01*
X-28090869Y13174681D01*
X-28090871Y13174677D01*
X-28135848Y13063354D01*
X-28294260Y12671272D01*
X-28462720Y12152804D01*
X-28594604Y11623848D01*
X-28594985Y11621690D01*
X-28594986Y11621683D01*
X-28623411Y11460477D01*
X-28689268Y11086980D01*
X-28689497Y11084801D01*
X-28689498Y11084794D01*
X-28697269Y11010860D01*
X-28746252Y10544817D01*
X-28765277Y10000000D01*
X-48694700Y10000000D01*
X-48694700Y21912264D01*
X-48692786Y21934144D01*
X-48691904Y21939146D01*
X-48689990Y21950000D01*
X-48691904Y21960855D01*
X-48691904Y21971879D01*
X-48690865Y21971879D01*
X-48691317Y21984345D01*
X-48682568Y22073179D01*
X-48677749Y22097405D01*
X-48645422Y22203973D01*
X-48635970Y22226793D01*
X-48583472Y22325010D01*
X-48569749Y22345548D01*
X-48499099Y22431634D01*
X-48481634Y22449099D01*
X-48395548Y22519749D01*
X-48375010Y22533472D01*
X-48276793Y22585970D01*
X-48253973Y22595422D01*
X-48147405Y22627749D01*
X-48123179Y22632568D01*
X-48034345Y22641317D01*
X-48021879Y22640865D01*
X-48021879Y22641904D01*
X-48010855Y22641904D01*
X-48000000Y22639990D01*
X-47984142Y22642786D01*
X-47962264Y22644700D01*
X47962264Y22644700D01*
X47984142Y22642786D01*
G37*
%TD.AperFunction*%
%TD*%
M02*
